<?xml version="1.0" encoding="UTF-8"?>
<svg
  xmlns="http://www.w3.org/2000/svg"
  viewBox="0 0 24 24"
  width="24"
  height="24"
  shape-rendering="geometricPrecision"
  text-rendering="geometricPrecision"
  image-rendering="optimizeQuality"
  vector-effect="non-scaling-stroke"
>
  <g fill="#FFFFFF" fill-rule="evenodd">

    <path d="M15.5 18.23
             C15.989 18.23 16.385 18.627 16.385 19.115
             C16.385 19.604 15.989 20 15.5 20
             C15.012 20 14.615 19.604 14.615 19.115
             C14.615 18.627 15.012 18.23 15.5 18.23Z"/>

    <path d="M17.923 9
             C19.07 9 20 9.93 20 11.077
             L20.093 19.923
             C20.093 21.07 19.163 22 18.016 22
             H13.17
             C12.023 22 11.093 21.07 11.093 19.923
             L11 11.077
             C11 9.93 11.93 9 13.077 9
             H17.923Z

             M13.077 10.385
             C12.695 10.385 12.385 10.695 12.385 11.077
             L12.478 19.923
             C12.478 20.305 12.788 20.615 13.17 20.615
             H18.016
             C18.398 20.615 18.708 20.305 18.708 19.923
             L18.615 11.077
             C18.615 10.695 18.305 10.385 17.923 10.385
             H17.23
             C17.23 11.149 16.61 11.769 15.846 11.769
             H15.153
             C14.389 11.769 13.769 11.149 13.769 10.385
             H13.077Z"/>

    <path d="M1.575 12.614
             C1.789 12.166 2.326 11.974 2.774 12.188
             C3.223 12.401 3.415 12.939 3.201 13.388
             C2.888 14.047 2.805 14.815 3.022 15.571
             C3.479 17.165 5.102 18.108 6.699 17.737
             L5.509 17.264
             C5.176 17.131 5.013 16.753 5.146 16.42
             C5.278 16.087 5.657 15.924 5.99 16.057
             L8.782 17.167
             C9.478 17.444 9.669 18.34 9.146 18.876
             L7.047 21.027
             C6.796 21.284 6.384 21.289 6.127 21.038
             C5.87 20.787 5.866 20.375 6.116 20.118
             L6.647 19.574
             C4.277 19.892 1.969 18.434 1.29 16.067
             C0.948 14.874 1.081 13.654 1.575 12.614Z"/>

    <path d="M10.923 1
             C12.07 1 13 1.93 13 3.077
             V8
             H11.615
             V3.077
             C11.615 2.695 11.305 2.385 10.923 2.385
             H10.231
             C10.23 3.149 9.61 3.77 8.846 3.77
             H8.154
             C7.39 3.77 6.77 3.149 6.77 2.385
             H6.077
             C5.695 2.385 5.385 2.695 5.385 3.077
             V11.923
             C5.385 12.305 5.695 12.615 6.077 12.615
             H10
             V14
             H6.077
             C4.93 14 4 13.07 4 11.923
             V3.077
             C4 1.93 4.93 1 6.077 1
             H10.923Z"/>

    <path d="M8.885 10
             C9.373 10 9.77 10.396 9.77 10.885
             C9.77 11.373 9.373 11.769 8.885 11.769
             C8.396 11.769 8 11.373 8 10.885
             C8 10.396 8.396 10 8.885 10Z"/>

    <path d="M17.007 2.47
             C17.253 2.209 17.666 2.196 17.927 2.442
             C18.188 2.689 18.199 3.1 17.953 3.361
             L17.41 3.938
             C19.795 3.597 22.127 5.057 22.81 7.438
             C23.152 8.632 23.019 9.852 22.524 10.892
             C22.311 11.34 21.774 11.531 21.325 11.317
             C20.877 11.104 20.686 10.567 20.899 10.118
             C21.213 9.46 21.295 8.691 21.078 7.935
             C20.625 6.352 19.021 5.413 17.436 5.762
             L18.61 6.205
             C18.946 6.332 19.115 6.707 18.988 7.043
             C18.861 7.378 18.486 7.547 18.15 7.421
             L15.339 6.359
             C14.638 6.095 14.432 5.201 14.946 4.656
             L17.007 2.47Z"/>

  </g>
</svg>