<svg xmlns="http://www.w3.org/2000/svg"
     width="63"
     height="63"
     viewBox="0 0 24 24"
     shape-rendering="geometricPrecision">

  <path
    d="M3.28 9.01L7.57 5.01C8.27 4.36 9.17 4 10.1 4H18.19C20.29 4 22 5.79 22 8V16C22 18.21 20.29 20 18.19 20H10.1C9.17 20 8.27 19.64 7.57 18.99L3.28 14.99C1.71 13.52 1.56 10.99 2.96 9.34C3.06 9.23 3.17 9.11 3.28 9.01ZM10.29 8.29C10.65 7.93 11.22 7.91 11.61 8.21L11.71 8.29L13.98 10.56L16.24 8.29L16.34 8.21C16.73 7.91 17.3 7.93 17.66 8.29C18.05 8.68 18.05 9.32 17.66 9.71L15.39 11.98L17.66 14.24C18.05 14.63 18.05 15.27 17.66 15.66C17.3 16.02 16.73 16.05 16.34 15.74L16.24 15.66L13.98 13.39L11.71 15.66L11.61 15.74C11.22 16.05 10.65 16.02 10.29 15.66C9.9 15.27 9.9 14.63 10.29 14.24L12.56 11.98L10.29 9.71C9.9 9.32 9.9 8.68 10.29 8.29Z"
    fill="#A59FB2"
    fill-rule="evenodd"
    clip-rule="evenodd"
    vector-effect="non-scaling-stroke"/>
</svg>