<svg xmlns="http://www.w3.org/2000/svg"
     width="78"
     height="78"
     viewBox="10.5 10.5 19 19"
     shape-rendering="geometricPrecision">

  <!-- TODO ESCALA JUNTO: ROMBO + TEXTO -->
  <g transform="translate(10.5 10.5) scale(0.48)">

    <!-- ROMBO (sin borde azul, radio −60%) -->
    <path d="M17.228 6.186L6.243 17.172C4.681 18.734 4.681 21.266 6.243 22.828L17.228 33.814C18.79 35.376 21.323 35.376 22.885 33.814L33.87 22.828C35.432 21.266 35.432 18.734 33.87 17.172L22.885 6.186C21.323 4.624 18.79 4.624 17.228 6.186Z"
          fill="#3270CC"/>

    <!-- S -->
    <path d="M10.384 17.893C10.384 18.6 10.854 18.696 11.639 18.915C12.948 19.281 13.511 19.801 13.511 21.076C13.511 22.629 12.593 23.19 10.974 23.19C10.206 23.19 9.558 23.096 9 22.971L9.134 21.844C9.636 21.92 10.398 22 10.923 22C11.642 22 12.082 21.835 12.082 21.127C12.082 20.471 11.579 20.324 10.947 20.123C9.721 19.736 9 19.346 9 18.016C9 16.489 9.873 16 11.445 16C12.169 16 12.915 16.112 13.401 16.221L13.276 17.319C12.834 17.248 12.283 17.165 11.771 17.165C11.22 17.165 10.384 17.19 10.384 17.893Z"
          fill="#FFFFFF"/>

    <!-- O -->
    <path d="M14.226 19.594C14.226 17.042 14.833 16 16.959 16C19.085 16 19.69 17.042 19.69 19.594C19.69 22.145 19.082 23.187 16.959 23.187C14.835 23.187 14.226 22.145 14.226 19.594ZM18.281 19.594C18.281 18.158 18.252 17.176 16.959 17.176C15.666 17.176 15.632 18.158 15.632 19.594C15.632 21.029 15.661 22.009 16.959 22.009C18.256 22.009 18.281 21.029 18.281 19.594Z"
          fill="#FFFFFF"/>

    <!-- A ORIGINAL (INTOCADA) -->
    <path d="M19.971 23.116L22.003 16.982C22.231 16.292 22.602 16 23.126 16C23.651 16 24.022 16.31 24.241 16.982L26.237 23.116H24.765L24.243 21.372H21.912L21.403 23.116H19.971ZM23.919 20.274L23.068 17.426L22.233 20.274H23.919Z"
          fill="#FFFFFF"/>

    <!-- T -->
    <path d="M30.565 17.228H28.883V23.116H27.49V17.228H25.817V16.074H30.563V17.228Z"
          fill="#FFFFFF"/>

  </g>
</svg>