<svg xmlns="http://www.w3.org/2000/svg"
     width="48"
     height="48"
     viewBox="0 0 80 80"
     shape-rendering="geometricPrecision">
  <g>
    <path d="M61.214 61.213C49.499 72.928 30.503 72.928 18.788 61.213C10.535 52.96 8.095 41.095 11.467 30.709C12.884 26.35 15.323 22.252 18.788 18.787C25.66 11.914 35.035 9.073 43.979 10.264C50.282 11.101 56.368 13.942 61.214 18.787C72.928 30.502 72.928 49.498 61.214 61.213Z" fill="#407EED"/>
    <path d="M48.511 57.733C49.936 59.155 52.384 58.357 52.669 56.362L54.973 40.24C55.201 38.626 53.821 37.246 52.207 37.474L36.085 39.778C34.093 40.063 33.298 42.52 34.72 43.942L48.511 57.733Z" fill="#52E6A0"/>
    <path d="M36.493 45.712C30.946 53.125 21.805 56.272 13 53.092C13 57.046 15.376 61.066 17.599 62.401C22.096 65.101 37.699 65.764 46.543 55.759L36.493 45.712Z" fill="#4AE4AF"/>
    <path d="M30.574 36.475L27.073 37.399C25.744 37.75 24.592 38.584 23.842 39.736L19.951 45.736C19.183 46.924 17.662 47.368 16.375 46.786C15.34 46.318 14.695 45.289 14.695 44.182C14.695 44.014 14.71 43.843 14.74 43.672L16.249 35.335C16.654 33.106 15.997 30.817 14.476 29.143L12.808 27.307C14.248 24.223 16.24 21.334 18.787 18.787C20.593 16.981 22.57 15.454 24.667 14.206L30.325 20.824C31.456 22.144 32.338 23.656 32.938 25.285L34.372 29.185C35.503 32.26 33.742 35.641 30.574 36.475Z" fill="#3EADEB"/>
    <path d="M52.602 12.766L52.314 15.064C52.104 16.738 50.763 18.043 49.083 18.205L43.542 18.733C41.901 18.889 40.359 17.911 39.807 16.357L39.318 14.983C39.06 14.266 38.541 13.672 37.866 13.321L33.036 10.816C36.621 9.964 40.335 9.778 43.977 10.264C46.932 10.657 49.845 11.491 52.602 12.766Z" fill="#3DA8F8"/>
    <path d="M66.637 53.812L64.174 39.751L59.797 36.088C59.035 35.449 58.594 34.507 58.594 33.514V30.46C58.594 28.93 59.629 27.592 61.111 27.208L66.394 25.843C71.119 34.534 71.182 45.058 66.637 53.812Z" fill="#3BB2E3"/>
  </g>
</svg>