<?xml version="1.0" encoding="UTF-8"?>
<svg xmlns="http://www.w3.org/2000/svg" width="66.45" height="66.45" viewBox="0 0 24.0 24.0">
  <g>
    <path d="M15 19C15 20.6568 13.6568 22 12 22C10.3431 22 9 20.6569 9 19H15Z" fill="#FFFFFF" />
    <path d="M12.3604 2.00879C16.0588 2.19638 19 5.25489 19 9V11.5449L19.0078 11.7373C19.088 12.6325 19.758 12.5789 20.666 13.8174C21.6043 15.0971 20.7478 16.8837 19.2041 16.9941L19.0527 17H4.94727L4.7959 16.9941C3.30171 16.8873 2.45147 15.2104 3.24903 13.9424L3.33399 13.8174C4.24201 12.579 4.91202 12.6325 4.99219 11.7373L5 11.5449V9C5 5.13401 8.13402 2.00001 12 2L12.3604 2.00879ZM12 4C9.32472 4.00001 7.14053 6.10112 7.00684 8.74316L7 9V11.5449C7 12.0359 6.92139 12.5593 6.66602 13.0713C6.41821 13.5681 6.08041 13.8943 5.86719 14.0859C5.49914 14.4166 5.31898 14.5293 5.0625 14.8486L4.94727 15H19.0527C18.7282 14.5574 18.5535 14.464 18.1328 14.0859C17.9196 13.8944 17.5818 13.5681 17.334 13.0713C17.0786 12.5593 17 12.0359 17 11.5449V9C17 6.32475 14.8989 4.14058 12.2568 4.00684L12 4Z" fill="#FFFFFF" />
  </g>
</svg>
