<svg
  xmlns="http://www.w3.org/2000/svg"
  viewBox="0 0 264 264"
  shape-rendering="geometricPrecision"
  text-rendering="geometricPrecision"
  image-rendering="optimizeQuality"
  vector-effect="non-scaling-stroke"
>
  <g>
    <path d="M59.072,18C55.1,18 51.56,19.746 49.266,22.458C48.357,22.199 47.4,22.058 46.418,22.058C41.139,22.058 36.84,26.075 36.84,31.028C36.84,35.984 41.125,39.999 46.411,39.999C48.13,39.999 49.771,39.572 51.208,38.831C53.355,40.459 56.086,41.438 59.063,41.438C65.968,41.438 71.952,36.225 71.952,29.752C71.952,23.28 65.968,18 59.072,18Z" fill="#812A96" />
    <path d="M230.987,106.156C230.173,106.156 229.38,106.247 228.614,106.413C225.562,101.957 220.111,98.96 214.124,98.96C207.339,98.96 201.498,102.774 198.944,108.225C198.175,108.056 197.381,107.955 196.568,107.955C190.986,107.955 186.44,112.174 186.44,117.376C186.44,122.58 190.971,126.797 196.561,126.797C198.669,126.797 200.668,126.2 202.345,125.178C205.344,128.006 209.507,129.76 214.113,129.76C217.665,129.76 221.023,128.716 223.813,126.951C225.774,128.568 228.264,129.541 230.979,129.541C237.292,129.541 242.76,124.339 242.76,117.883C242.76,111.425 237.292,106.156 230.987,106.156Z" fill="#812A96" />
    <path d="M49.164,175.562L91.78,175.651C96.166,175.661 99.729,172.158 99.738,167.828L99.959,64.797C99.968,60.467 96.421,56.95 92.035,56.94L49.419,56.851C45.033,56.842 41.47,60.344 41.461,64.675L41.24,167.705C41.23,172.035 44.778,175.553 49.164,175.562Z" fill="#521461" />
    <path d="M146.84,148.24H180.28V241.52C180.28,243.95 178.31,245.92 175.88,245.92H151.24C148.81,245.92 146.84,243.95 146.84,241.52V148.24Z" fill="#FCC7A3" />
    <path d="M146.84,194H180.28V241.52C180.28,243.95 178.31,245.92 175.88,245.92H151.24C148.81,245.92 146.84,243.95 146.84,241.52V194Z" fill="#8E30A5" />
    <path d="M182.92,173.76H144.2C143.228,173.76 142.44,174.548 142.44,175.52V192.24C142.44,193.212 143.228,194 144.2,194H182.92C183.892,194 184.68,193.212 184.68,192.24V175.52C184.68,174.548 183.892,173.76 182.92,173.76Z" fill="#742385" />
    <path d="M179.84,190.48C180.569,190.48 181.16,189.889 181.16,189.16C181.16,188.431 180.569,187.84 179.84,187.84C179.111,187.84 178.52,188.431 178.52,189.16C178.52,189.889 179.111,190.48 179.84,190.48Z" fill="#FFFFFF" />
    <path d="M141.499,157.032L183.688,163.05C188.03,163.67 192.046,160.697 192.657,156.411L207.215,54.413C207.827,50.127 204.804,46.15 200.462,45.53L158.273,39.511C153.931,38.892 149.916,41.864 149.304,46.151L134.746,148.148C134.133,152.435 137.158,156.412 141.499,157.032Z" fill="#C54752" />
    <path d="M140.039,154.548L185.195,160.992C188.717,161.495 191.98,159.047 192.482,155.525L207.379,51.142C207.881,47.619 205.433,44.356 201.91,43.854L156.755,37.41C153.233,36.907 149.969,39.355 149.467,42.878L134.571,147.261C134.069,150.783 136.517,154.046 140.039,154.548Z" fill="#E34D58" />
    <path d="M186.278,52.04C186.652,52.094 186.998,51.834 187.051,51.46L187.126,50.936C187.179,50.562 186.92,50.216 186.546,50.163L172.806,48.202C172.433,48.148 172.086,48.408 172.033,48.782L171.958,49.307C171.904,49.68 172.164,50.026 172.538,50.08L186.278,52.04Z" fill="#8A122E" />
    <path d="M167.623,50.092C168.41,50.205 169.14,49.657 169.252,48.87C169.365,48.083 168.817,47.353 168.03,47.241C167.243,47.128 166.513,47.676 166.401,48.463C166.288,49.25 166.836,49.98 167.623,50.092Z" fill="#8A122E" />
    <path d="M189.892,52.634C190.306,52.693 190.69,52.405 190.75,51.991L190.803,51.614C190.863,51.2 190.575,50.816 190.159,50.756C189.745,50.697 189.36,50.985 189.301,51.4L189.248,51.776C189.188,52.19 189.476,52.575 189.892,52.634Z" fill="#8A122E" />
    <path d="M161.824,155.572C164.08,155.894 166.17,154.326 166.491,152.069C166.814,149.814 165.246,147.724 162.99,147.402C160.734,147.08 158.644,148.648 158.321,150.904C157.999,153.16 159.567,155.25 161.824,155.572Z" fill="#8A122E" />
    <path d="M202.008,58.82L153.207,51.962L140.593,141.72L189.393,148.578L202.008,58.82Z" fill="#FFFFFF" />
    <path d="M157.733,80.142L142.506,75.775C139.703,74.972 136.779,76.592 135.975,79.396C135.172,82.199 136.792,85.122 139.595,85.926L154.822,90.292C157.625,91.096 160.549,89.475 161.353,86.672C162.156,83.869 160.536,80.945 157.733,80.142Z" fill="#F6B28C" />
    <path d="M154.213,90.701L138.986,86.335C136.183,85.532 133.259,87.152 132.455,89.955C131.652,92.759 133.272,95.683 136.075,96.486L151.302,100.852C154.105,101.656 157.029,100.035 157.833,97.232C158.636,94.429 157.016,91.505 154.213,90.701Z" fill="#F6B28C" />
    <path d="M150.693,101.261L135.466,96.895C132.663,96.092 129.739,97.712 128.935,100.515C128.132,103.319 129.752,106.243 132.555,107.046L147.782,111.412C150.585,112.216 153.509,110.595 154.313,107.792C155.116,104.989 153.496,102.065 150.693,101.261Z" fill="#F6B28C" />
    <path d="M146.58,111.598L138.121,109.172C135.318,108.368 132.394,109.989 131.59,112.792C130.787,115.595 132.407,118.519 135.21,119.323L143.67,121.748C146.473,122.552 149.397,120.932 150.2,118.128C151.004,115.325 149.383,112.401 146.58,111.598Z" fill="#F6B28C" />
    <path d="M157.733,79.261L142.506,74.895C139.703,74.092 136.779,75.712 135.975,78.516C135.172,81.319 136.792,84.243 139.595,85.046L154.822,89.412C157.625,90.216 160.549,88.595 161.353,85.792C162.156,82.989 160.536,80.065 157.733,79.261Z" fill="#FAC899" />
    <path d="M154.213,89.822L138.986,85.455C136.183,84.652 133.259,86.272 132.455,89.076C131.652,91.879 133.272,94.802 136.075,95.606L151.302,99.972C154.105,100.776 157.029,99.155 157.833,96.352C158.636,93.549 157.016,90.625 154.213,89.822Z" fill="#FAC899" />
    <path d="M150.693,100.381L135.466,96.015C132.663,95.212 129.739,96.832 128.935,99.635C128.132,102.439 129.752,105.363 132.555,106.166L147.782,110.532C150.585,111.336 153.509,109.715 154.313,106.912C155.116,104.109 153.496,101.185 150.693,100.381Z" fill="#FAC899" />
    <path d="M147.411,111.004L138.106,108.335C135.303,107.532 132.379,109.152 131.575,111.955C130.772,114.759 132.392,117.683 135.195,118.486L144.5,121.154C147.304,121.958 150.227,120.337 151.031,117.534C151.835,114.731 150.214,111.807 147.411,111.004Z" fill="#FAC899" />
    <path d="M177.55,80.131L170.617,78.909C170.137,78.824 169.818,78.369 169.903,77.889C170.324,75.5 172.611,73.899 175,74.32C177.389,74.742 178.991,77.028 178.569,79.418C178.485,79.897 178.029,80.216 177.55,80.131ZM176.07,68.254C177.503,68.507 178.464,69.879 178.211,71.312C177.959,72.746 176.586,73.706 175.153,73.454C173.72,73.201 172.759,71.829 173.011,70.395C173.264,68.962 174.636,68.001 176.07,68.254ZM176.528,65.654C171.743,64.81 167.178,68.007 166.334,72.792C165.49,77.578 168.687,82.143 173.472,82.987C178.257,83.83 182.823,80.634 183.666,75.848C184.51,71.063 181.314,66.498 176.528,65.654Z" fill="#742384" />
    <path d="M181.705,129.982C182.665,130.134 183.32,131.036 183.168,131.996C183.016,132.956 182.114,133.611 181.154,133.459L154.21,129.191C153.25,129.039 152.595,128.138 152.747,127.177C152.899,126.217 153.801,125.562 154.761,125.714L181.705,129.982ZM183.907,116.075C184.867,116.227 185.522,117.129 185.37,118.089C185.218,119.049 184.317,119.704 183.357,119.552L156.413,115.284C155.453,115.132 154.798,114.231 154.95,113.271C155.102,112.311 156.003,111.656 156.963,111.808L183.907,116.075ZM186.11,102.169C187.07,102.321 187.725,103.222 187.573,104.182C187.421,105.142 186.519,105.797 185.559,105.645L158.615,101.378C157.655,101.226 157,100.324 157.152,99.364C157.304,98.404 158.206,97.749 159.166,97.901L186.11,102.169Z" fill="#E5E7EB" />
    <path d="M198.481,138.396L188.807,138.734C184.435,138.887 181.015,142.554 181.168,146.925C181.321,151.297 184.988,154.717 189.359,154.564L199.034,154.226C203.405,154.074 206.825,150.406 206.672,146.035C206.52,141.663 202.852,138.243 198.481,138.396Z" fill="#F6B28C" />
    <path d="M198.481,136.636L188.807,136.974C184.435,137.127 181.015,140.794 181.168,145.165C181.321,149.537 184.988,152.957 189.359,152.804L199.034,152.466C203.405,152.314 206.825,148.646 206.672,144.275C206.52,139.903 202.852,136.483 198.481,136.636Z" fill="#FAC899" />
    <path d="M47.674,173.285L93.286,173.382C96.844,173.39 99.735,170.511 99.742,166.953L99.966,61.513C99.973,57.954 97.095,55.064 93.537,55.057L47.924,54.96C44.366,54.952 41.475,57.831 41.468,61.389L41.244,166.829C41.237,170.387 44.116,173.278 47.674,173.285Z" fill="#8E30A5" />
    <path d="M70.878,171.453C73.157,171.458 75.008,169.615 75.013,167.335C75.018,165.057 73.174,163.205 70.896,163.2C68.617,163.196 66.766,165.039 66.76,167.318C66.755,169.597 68.599,171.448 70.878,171.453Z" fill="#611B73" />
    <path d="M94.92,69.92H45.64V160.56H94.92V69.92Z" fill="#FFFFFF" />
    <path d="M44.709,196.459C42.993,193.936 39.929,192.24 36.564,192.24C32.749,192.24 29.466,194.4 28.03,197.485C27.598,197.389 27.151,197.332 26.694,197.332C23.556,197.332 21,199.72 21,202.664C21,205.609 23.548,207.996 26.69,207.996C27.874,207.996 29,207.659 29.942,207.081C31.628,208.68 33.968,209.674 36.556,209.674C38.553,209.674 40.442,209.083 42.01,208.083C43.112,209 44.512,209.55 46.039,209.55C49.588,209.55 52.662,206.606 52.662,202.951C52.662,199.296 49.588,196.314 46.043,196.314C45.586,196.314 45.139,196.365 44.709,196.459Z" fill="#812A96" fill-opacity="0.628325" stroke-opacity="0.628325" />
    <path d="M107.24,98.96H91.4C88.484,98.96 86.12,101.324 86.12,104.24C86.12,107.156 88.484,109.52 91.4,109.52H107.24C110.156,109.52 112.52,107.156 112.52,104.24C112.52,101.324 110.156,98.96 107.24,98.96Z" fill="#F6B28C" />
    <path d="M107.24,110.4H91.4C88.484,110.4 86.12,112.764 86.12,115.68C86.12,118.596 88.484,120.96 91.4,120.96H107.24C110.156,120.96 112.52,118.596 112.52,115.68C112.52,112.764 110.156,110.4 107.24,110.4Z" fill="#F6B28C" />
    <path d="M107.24,121.84H91.4C88.484,121.84 86.12,124.204 86.12,127.12C86.12,130.036 88.484,132.4 91.4,132.4H107.24C110.156,132.4 112.52,130.036 112.52,127.12C112.52,124.204 110.156,121.84 107.24,121.84Z" fill="#F6B28C" />
    <path d="M101.08,134.16H91.4C88.484,134.16 86.12,136.524 86.12,139.44C86.12,142.356 88.484,144.72 91.4,144.72H101.08C103.996,144.72 106.36,142.356 106.36,139.44C106.36,136.524 103.996,134.16 101.08,134.16Z" fill="#F6B28C" />
    <path d="M107.24,98.08H91.4C88.484,98.08 86.12,100.444 86.12,103.36C86.12,106.276 88.484,108.64 91.4,108.64H107.24C110.156,108.64 112.52,106.276 112.52,103.36C112.52,100.444 110.156,98.08 107.24,98.08Z" fill="#FAC899" />
    <path d="M107.24,109.52H91.4C88.484,109.52 86.12,111.884 86.12,114.8C86.12,117.716 88.484,120.08 91.4,120.08H107.24C110.156,120.08 112.52,117.716 112.52,114.8C112.52,111.884 110.156,109.52 107.24,109.52Z" fill="#FAC899" />
    <path d="M107.24,120.96H91.4C88.484,120.96 86.12,123.324 86.12,126.24C86.12,129.156 88.484,131.52 91.4,131.52H107.24C110.156,131.52 112.52,129.156 112.52,126.24C112.52,123.324 110.156,120.96 107.24,120.96Z" fill="#FAC899" />
    <path d="M101.08,133.28H91.4C88.484,133.28 86.12,135.644 86.12,138.56C86.12,141.476 88.484,143.84 91.4,143.84H101.08C103.996,143.84 106.36,141.476 106.36,138.56C106.36,135.644 103.996,133.28 101.08,133.28Z" fill="#FAC899" />
    <path d="M73.8,103.36H66.76C66.273,103.36 65.88,102.966 65.88,102.48C65.88,100.054 67.854,98.08 70.28,98.08C72.706,98.08 74.68,100.054 74.68,102.48C74.68,102.966 74.286,103.36 73.8,103.36ZM70.28,91.92C71.735,91.92 72.92,93.104 72.92,94.56C72.92,96.015 71.735,97.2 70.28,97.2C68.824,97.2 67.64,96.015 67.64,94.56C67.64,93.104 68.824,91.92 70.28,91.92ZM70.28,89.28C65.421,89.28 61.48,93.221 61.48,98.08C61.48,102.939 65.421,106.88 70.28,106.88C75.139,106.88 79.08,102.939 79.08,98.08C79.08,93.221 75.139,89.28 70.28,89.28Z" fill="#742384" />
    <path d="M53.56,175.52H87V241.52C87,243.95 85.03,245.92 82.6,245.92H57.96C55.53,245.92 53.56,243.95 53.56,241.52V175.52Z" fill="#FCC7A3" />
    <path d="M53.56,214.24H87V241.52C87,243.95 85.03,245.92 82.6,245.92H57.96C55.53,245.92 53.56,243.95 53.56,241.52V214.24Z" fill="#F34A5A" />
    <path d="M89.64,194H50.92C49.948,194 49.16,194.788 49.16,195.76V212.48C49.16,213.452 49.948,214.24 50.92,214.24H89.64C90.612,214.24 91.4,213.452 91.4,212.48V195.76C91.4,194.788 90.612,194 89.64,194Z" fill="#FFFFFF" />
    <path d="M54,210.72C54.729,210.72 55.32,210.129 55.32,209.4C55.32,208.671 54.729,208.08 54,208.08C53.271,208.08 52.68,208.671 52.68,209.4C52.68,210.129 53.271,210.72 54,210.72Z" fill="#BFC4CC" />
    <path d="M83.48,117.44H56.2C55.228,117.44 54.44,118.228 54.44,119.2C54.44,120.172 55.228,120.96 56.2,120.96H83.48C84.452,120.96 85.24,120.172 85.24,119.2C85.24,118.228 84.452,117.44 83.48,117.44Z" fill="#E5E7EB" />
    <path d="M83.48,131.52H56.2C55.228,131.52 54.44,132.308 54.44,133.28C54.44,134.252 55.228,135.04 56.2,135.04H83.48C84.452,135.04 85.24,134.252 85.24,133.28C85.24,132.308 84.452,131.52 83.48,131.52Z" fill="#E5E7EB" />
    <path d="M83.48,145.6H56.2C55.228,145.6 54.44,146.388 54.44,147.36C54.44,148.332 55.228,149.12 56.2,149.12H83.48C84.452,149.12 85.24,148.332 85.24,147.36C85.24,146.388 84.452,145.6 83.48,145.6Z" fill="#E5E7EB" />
    <path d="M46.52,138.56H36.84C32.466,138.56 28.92,142.106 28.92,146.48C28.92,150.854 32.466,154.4 36.84,154.4H46.52C50.894,154.4 54.44,150.854 54.44,146.48C54.44,142.106 50.894,138.56 46.52,138.56Z" fill="#F6B28C" />
    <path d="M46.52,136.8H36.84C32.466,136.8 28.92,140.346 28.92,144.72C28.92,149.094 32.466,152.64 36.84,152.64H46.52C50.894,152.64 54.44,149.094 54.44,144.72C54.44,140.346 50.894,136.8 46.52,136.8Z" fill="#FAC899" />
    <path d="M64.868,64.426L78.746,64.456C79.124,64.457 79.431,64.151 79.432,63.773L79.433,63.243C79.434,62.866 79.128,62.56 78.751,62.559L64.871,62.529C64.494,62.528 64.188,62.834 64.187,63.211L64.186,63.742C64.185,64.119 64.49,64.425 64.868,64.426Z" fill="#611B73" />
    <path d="M59.397,64.88C60.192,64.882 60.839,64.239 60.84,63.443C60.842,62.648 60.199,62.002 59.403,62C58.608,61.998 57.962,62.642 57.96,63.437C57.958,64.232 58.602,64.879 59.397,64.88Z" fill="#611B73" />
    <path d="M82.88,64.465C83.299,64.465 83.639,64.127 83.64,63.708L83.641,63.328C83.642,62.91 83.303,62.569 82.883,62.568C82.465,62.567 82.124,62.906 82.123,63.325V63.705C82.121,64.123 82.46,64.464 82.88,64.465Z" fill="#611B73" />
    <path d="M142.161,37.976C142.161,37.976 129.568,26.781 123.135,25.138C123.135,25.138 113.2,26.911 114.659,29.081C116.117,31.25 121.714,33.354 121.714,33.354L142.161,37.976Z" fill="#00D0B6" />
    <path d="M142.05,38.425C142.05,38.425 121.89,24.009 117.23,23.731L115.227,29.51L142.05,38.425Z" fill="#00D0B6" />
    <path d="M142.05,38.425C142.05,38.425 121.89,24.009 117.23,23.731L115.227,29.51L142.05,38.425Z" fill="#000000" fill-opacity="0.2" />
    <path d="M114.989,39.196C117.735,38.655 125.943,37.547 141.386,39.414C142.441,39.542 142.91,38.209 141.998,37.671C137.845,35.222 129.302,31.187 113.851,27.612C113.191,27.459 112.577,27.974 112.654,28.621L113.795,38.351C113.861,38.913 114.414,39.309 114.989,39.196Z" fill="#00D0B6" />
    <path d="M105.026,39.934C104.083,40.228 103.128,39.511 102.893,38.332C102.658,37.153 103.231,35.96 104.174,35.666C105.117,35.372 106.072,36.089 106.307,37.268C106.542,38.446 105.969,39.64 105.026,39.934Z" fill="#6E2897" />
    <path d="M98.866,41.707C97.923,41.942 96.968,41.369 96.733,40.426C96.498,39.483 97.071,38.528 98.014,38.293C98.957,38.058 99.912,38.631 100.147,39.574C100.382,40.517 99.809,41.472 98.866,41.707Z" fill="#6E2897" />
    <path d="M93.252,46.107C92.074,46.342 90.88,45.769 90.586,44.826C90.292,43.883 91.009,42.928 92.188,42.693C93.367,42.458 94.56,43.031 94.854,43.974C95.148,44.917 94.431,45.872 93.252,46.107Z" fill="#6E2897" />
  </g>
</svg>
