<?xml version="1.0" encoding="UTF-8"?>
<svg xmlns="http://www.w3.org/2000/svg" width="60.0" height="60.0" viewBox="0 0 24.0 24.0">
  <path d="M19 4C20.6569 4 22 5.34315 22 7V17C22 18.6569 20.6569 20 19 20H5C3.34315 20 2 18.6569 2 17V7C2 5.34315 3.34315 4 5 4H19ZM19.9933 17.1166L20 17V8.07812L14.6907 12.9054C13.2195 14.2428 11.0004 14.2906 9.47579 13.0487L9.30932 12.9054L4 8.079V17C4 17.5128 4.38604 17.9355 4.88338 17.9933L5 18H19C19.5128 18 19.9355 17.614 19.9933 17.1166ZM19 6H5C4.90649 6 4.81598 6.01283 4.73013 6.03684L10.6547 11.4255C11.3726 12.0782 12.4468 12.1166 13.2067 11.5407L13.3454 11.4255L19.2699 6.03684C19.2202 6.02296 19.169 6.01282 19.1166 6.00673L19 6Z" fill="#FFFFFF" />
</svg>
