<?xml version="1.0" encoding="UTF-8"?>
<svg
  xmlns="http://www.w3.org/2000/svg"
  viewBox="0 0 32 32"
  width="24"
  height="24"
  shape-rendering="geometricPrecision"
  text-rendering="geometricPrecision"
  image-rendering="optimizeQuality"
  vector-effect="non-scaling-stroke"
>
  <g fill-rule="evenodd">

    <path
      d="M16 0
         C24.837 0 32 7.163 32 16
         C32 24.837 24.837 32 16 32
         C7.163 32 0 24.837 0 16
         C0 7.163 7.163 0 16 0Z"
      fill="#E0E0E0"
      fill-opacity="0.6"/>

    <path
      d="M9.293 9.293
         C9.683 8.902 10.317 8.902 10.707 9.293
         L16 14.585
         L21.293 9.293
         C21.683 8.902 22.317 8.902 22.707 9.293
         C23.098 9.683 23.098 10.317 22.707 10.707
         L17.415 16
         L22.707 21.293
         C23.098 21.683 23.098 22.317 22.707 22.707
         C22.317 23.098 21.683 23.098 21.293 22.707
         L16 17.415
         L10.707 22.707
         C10.317 23.098 9.683 23.098 9.293 22.707
         C8.902 22.317 8.902 21.683 9.293 21.293
         L14.585 16
         L9.293 10.707
         C8.902 10.317 8.902 9.683 9.293 9.293Z"
      fill="#3F3557"/>

  </g>
</svg>