<svg xmlns="http://www.w3.org/2000/svg"
     width="63"
     height="63"
     viewBox="0 0 24 24"
     shape-rendering="geometricPrecision">

  <path
    d="M12 2C17.52 2 22 6.48 22 12C22 17.52 17.52 22 12 22C6.48 22 2 17.52 2 12C2 6.48 6.48 2 12 2ZM12 4C7.59 4 4 7.59 4 12C4 16.41 7.59 20 12 20C16.41 20 20 16.41 20 12C20 7.59 16.41 4 12 4ZM15 14H12C11.45 14 11 13.55 11 13V8C11 7.45 11.45 7 12 7C12.55 7 13 7.45 13 8V12H15C15.55 12 16 12.45 16 13C16 13.55 15.55 14 15 14Z"
    fill="#69607B"
    fill-rule="evenodd"
    clip-rule="evenodd"
    vector-effect="non-scaling-stroke"/>
</svg>