<svg xmlns="http://www.w3.org/2000/svg"
     width="63"
     height="63"
     viewBox="0 0 24 24">

  <path
    d="M11 15C11 14.4477 11.4477 14 12 14C12.5523 14 13 14.4477 13 15V17C13 17.5523 12.5523 18 12 18C11.4477 18 11 17.5523 11 17V15Z"
    fill="#FFFFFF"/>

  <path
    d="M12 2C9.23858 2 7 4.23858 7 7V10C5.34315 10 4 11.3431 4 13V19C4 20.6569 5.34315 22 7 22H17C18.6569 22 20 20.6569 20 19V13C20 11.3431 18.6569 10 17 10V7C17 4.23858 14.7614 2 12 2ZM15 10V7C15 5.40232 13.7511 4.09634 12.1763 4.00509L12 4C10.3431 4 9 5.34315 9 7V10H15ZM7 12C6.44772 12 6 12.4477 6 13V19C6 19.5523 6.44772 20 7 20H17C17.5523 20 18 19.5523 18 19V13C18 12.4477 17.5523 12 17 12H7Z"
    fill="#FFFFFF"
    fill-rule="evenodd"
    clip-rule="evenodd"/>
</svg>