<?xml version="1.0" encoding="UTF-8"?>
<svg xmlns="http://www.w3.org/2000/svg" width="63.0" height="63.0" viewBox="0 0 24.0 24.0">
  <path d="M9,3C10.105,3 11,3.895 11,5V9C11,10.105 10.105,11 9,11H5C3.895,11 3,10.105 3,9V5C3,3.895 3.895,3 5,3H9ZM9,6C9,5.448 8.552,5 8,5H6C5.448,5 5,5.448 5,6V8C5,8.552 5.448,9 6,9H8C8.552,9 9,8.552 9,8V6ZM9,13C10.105,13 11,13.895 11,15V19C11,20.105 10.105,21 9,21H5C3.895,21 3,20.105 3,19V15C3,13.895 3.895,13 5,13H9ZM9,16C9,15.448 8.552,15 8,15H6C5.448,15 5,15.448 5,16V18C5,18.552 5.448,19 6,19H8C8.552,19 9,18.552 9,18V16ZM21,5C21,3.895 20.105,3 19,3H15C13.895,3 13,3.895 13,5V9C13,10.105 13.895,11 15,11H19C20.105,11 21,10.105 21,9V5ZM18,5C18.552,5 19,5.448 19,6V8C19,8.552 18.552,9 18,9H16C15.448,9 15,8.552 15,8V6C15,5.448 15.448,5 16,5H18ZM19,13C20.105,13 21,13.895 21,15V19C21,20.105 20.105,21 19,21H15C13.895,21 13,20.105 13,19V15C13,13.895 13.895,13 15,13H19ZM19,16C19,15.448 18.552,15 18,15H16C15.448,15 15,15.448 15,16V18C15,18.552 15.448,19 16,19H18C18.552,19 19,18.552 19,18V16ZM8,7C8,7.552 7.552,8 7,8C6.448,8 6,7.552 6,7C6,6.448 6.448,6 7,6C7.552,6 8,6.448 8,7ZM17,18C17.552,18 18,17.552 18,17C18,16.448 17.552,16 17,16C16.448,16 16,16.448 16,17C16,17.552 16.448,18 17,18Z" fill="#06C7B1" />
</svg>
