<?xml version="1.0" standalone="no"?>
<!DOCTYPE svg PUBLIC "-//W3C//DTD SVG 20010904//EN"
 "http://www.w3.org/TR/2001/REC-SVG-20010904/DTD/svg10.dtd">
<svg version="1.0" xmlns="http://www.w3.org/2000/svg"
 width="1024pt" height="1024pt" viewBox="0 0 1024 1024"
 preserveAspectRatio="xMidYMid meet">

  <!-- 🔸 Degradado del cuerpo -->
  <defs>
    <linearGradient id="cuerpoBus" x1="0" y1="0" x2="0" y2="1">
      <stop offset="0%" stop-color="#FC7933"/>  <!-- amarillo arriba -->
      <stop offset="100%" stop-color="#FFAF55"/> <!-- naranja abajo -->
    </linearGradient>
  </defs>

  <g transform="translate(0,1024) scale(0.1,-0.1)" stroke="none">

    <!-- 🔸 Cuerpo del bus -->
    <path fill="url(#cuerpoBus)"
  d="
    M1410,3000
    Q1010,3000 800,3500
    V7400
    Q1010,8000 1700,8000
    H8100
    Q8680,8000 9710,5000
    V3900
    Q9710,3000 9100,3000
    Z
  " />
    
    <!-- 🔸 Ventanas -->
    <path d="M1993 7423 c-60 -21 -137 -94 -170 -161 l-28 -57 0 -690 0 -690 26
    -55 c31 -66 85 -121 148 -152 l46 -23 775 0 775 0 51 27 c60 32 118 93 148
    157 21 46 21 52 21 731 l0 685 -26 55 c-36 78 -80 124 -151 160 l-61 30 -756
    -1 c-644 0 -762 -3 -798 -16z" fill="#AA512F"/>

    <path d="M4534 7416 c-63 -29 -116 -81 -152 -149 l-27 -52 0 -700 0 -700 27
    -52 c35 -65 90 -119 148 -147 45 -21 52 -21 865 -21 l820 0 47 22 c66 30 132
    102 158 169 20 55 20 68 18 748 l-3 691 -23 42 c-35 67 -79 110 -144 143 l-61
    30 -811 0 -811 0 -51 -24z" fill="#AA512F"/>

    <!-- 🔸 Llantas -->
    <path d="M7194 7430 c-31 -12 -82 -75 -94 -117 -8 -27 -10 -263 -8 -783 l3
    -745 30 -55 c33 -60 96 -114 153 -130 23 -6 208 -10 489 -10 502 0 516 -2 623
    -70 94 -60 108 -86 241 -435 99 -260 135 -326 207 -379 99 -72 87 -70 500 -74
    l372 -3 0 358 c0 377 -5 430 -50 550 -27 72 -104 224 -422 838 -146 281 -329
    635 -408 788 l-142 277 -737 -1 c-405 0 -745 -4 -757 -9z" fill="#AA512F"/>

    
    <!-- 🔸 Detalles frontales (opcional, decoración original) -->
    <path d="M2720 4084 c-261 -25 -471 -128 -646 -318 -239 -259 -317 -629 -202
    -956 94 -265 256 -449 503 -571 223 -110 460 -127 700 -52 337 105 593 397
    661 751 19 97 18 264 -2 359 -88 425 -430 739 -854 783 -56 5 -107 9 -114 8
    -6 0 -27 -3 -46 -4z" fill="#221E3E"/>

    <path d="M7200 4083 c-236 -24 -443 -125 -606 -295 -191 -199 -284 -443 -271
    -718 6 -139 32 -240 93 -369 55 -118 112 -197 205 -287 121 -116 230 -181 378
    -228 450 -142 933 68 1148 499 262 524 -3 1160 -562 1352 -117 40 -269 58
    -385 46z" fill="#221E3E"/>
    
    <!-- 🔸 Centros de llantas -->
    <circle cx="2790" cy="3100" r="450" fill="#A58AE6"/>
    <circle cx="7300" cy="3100" r="450" fill="#A58AE6"/>

    
  </g>
</svg>