<?xml version="1.0" encoding="UTF-8"?>
<svg xmlns="http://www.w3.org/2000/svg" width="63.0" height="63.0" viewBox="0 0 24.0 24.0">
  <path d="M18.707,4.293C19.068,4.653 19.095,5.221 18.79,5.613L18.707,5.707L4.707,19.707C4.317,20.098 3.683,20.098 3.293,19.707C2.932,19.347 2.905,18.779 3.21,18.387L3.293,18.293L4.959,16.626C4.216,16.023 3.531,15.304 2.905,14.47L2.673,14.152C1.821,12.95 1.778,11.289 2.545,10.042L2.673,9.848C4.965,6.616 8.074,5 12,5C13.423,5 14.739,5.212 15.948,5.637L17.293,4.293C17.683,3.902 18.317,3.902 18.707,4.293ZM19.487,7.756C20.06,8.274 20.596,8.866 21.095,9.53L21.327,9.848C22.224,11.113 22.224,12.887 21.327,14.152C19.035,17.384 15.926,19 12,19C10.82,19 9.714,18.854 8.681,18.562L11.304,15.94C11.53,15.979 11.763,16 12,16C14.209,16 16,14.209 16,12C16,11.763 15.979,11.53 15.94,11.304L19.487,7.756ZM12,8C9.791,8 8,9.791 8,12C8,12.474 8.082,12.929 8.234,13.35L13.35,8.234C12.929,8.082 12.474,8 12,8Z" fill="#742284" />
</svg>
