<?xml version="1.0" encoding="UTF-8"?>
<svg
  xmlns="http://www.w3.org/2000/svg"
  viewBox="0 0 24 24"
  width="64"
  height="64"
  shape-rendering="geometricPrecision"
  text-rendering="geometricPrecision"
  image-rendering="optimizeQuality"
  vector-effect="non-scaling-stroke"
>
  <path
    d="M12,5
       C8.074,5 4.965,6.616 2.673,9.848
       L2.545,10.042
       C1.778,11.289 1.821,12.95 2.673,14.152
       L2.905,14.47
       C5.173,17.49 8.205,19 12,19
       C15.926,19 19.035,17.384 21.327,14.152
       C22.224,12.887 22.224,11.113 21.327,9.848
       L21.095,9.53
       C18.827,6.51 15.795,5 12,5
       Z

       M12,8
       C14.209,8 16,9.791 16,12
       C16,14.209 14.209,16 12,16
       C9.791,16 8,14.209 8,12
       C8,9.791 9.791,8 12,8
       Z

       M12,10
       C10.895,10 10,10.895 10,12
       C10,13.105 10.895,14 12,14
       C13.105,14 14,13.105 14,12
       C14,10.895 13.105,10 12,10
       Z"
    fill="#742284"
    fill-rule="evenodd"
  />
</svg>