<?xml version="1.0" encoding="UTF-8"?>
<svg xmlns="http://www.w3.org/2000/svg" width="63.0" height="63.0" viewBox="0 0 24.0 24.0">
  <path d="M12.0456 22C11.4933 22 11.0456 21.5523 11.0456 21C11.0456 20.4477 11.4933 20 12.0456 20H17.0456V18.8975L16.3727 18.7812L16.1735 18.7363C15.2628 18.4836 14.6591 17.6209 14.7331 16.6787L14.7585 16.4766L15.8317 10.5732C16.0162 9.55797 16.9387 8.85528 17.9469 8.91895C17.4376 6.12155 14.9899 4.00012 12.0456 4C9.10167 4.00016 6.65491 6.12115 6.14518 8.91797C7.13408 8.87976 8.02913 9.57448 8.21061 10.5732L9.28287 16.4766L9.30924 16.6787C9.38325 17.6209 8.7795 18.4835 7.86881 18.7363L7.66959 18.7812L6.23893 10.9102L5.25358 11.0791C4.43729 11.219 3.89466 11.9927 4.04264 12.8076L4.57975 15.7598C4.72819 16.5742 5.50977 17.1217 6.32584 16.9824L7.31119 16.8135L7.66959 18.7812L6.68326 18.9502L6.50553 18.9756C4.72531 19.1882 3.05451 18.018 2.64518 16.2725L2.60807 16.0967L2.07193 13.1455C1.77902 11.5334 2.64352 9.99076 4.07389 9.35937C4.40049 5.24098 7.84326 2.00017 12.0456 2C16.2559 2.00013 19.7049 5.25321 20.0202 9.38281C21.4197 10.0283 22.2597 11.553 21.9704 13.1455L21.4342 16.0967L21.3971 16.2725C21.1078 17.5059 20.1881 18.4494 19.0456 18.8232V21C19.0456 21.5523 18.5979 22 18.0456 22H12.0456ZM18.0456 17C18.0478 17 18.0501 17.001 18.0524 17.001C18.7372 16.9639 19.3347 16.4612 19.4626 15.7598L19.9987 12.8076C20.1467 11.9927 19.6051 11.2189 18.7887 11.0791L17.8024 10.9102L16.7301 16.8135L17.7155 16.9824C17.8092 16.9985 17.9029 17.0044 17.9948 17.0029C18.0116 17.0021 18.0285 17 18.0456 17Z" fill="#FFFFFF" />
</svg>
