<?xml version="1.0" encoding="UTF-8"?>
<svg xmlns="http://www.w3.org/2000/svg" width="63.0" height="63.0" viewBox="0 0 24.0 24.0">
  <path d="M17.0003 15C18.7608 15.0002 20.1485 15.9994 20.7366 17.5889C21.9333 20.8207 16.0002 21.9999 12.0003 22C8.00036 22 2.06693 20.8213 3.26398 17.5889C3.85207 15.9995 5.23988 15.0003 7.00031 15H17.0003ZM7.00031 17C6.1425 17.0003 5.52238 17.4136 5.20051 18.1348L5.13996 18.2832C5.08602 18.4288 5.10802 18.374 5.12531 18.3955C5.25025 18.5521 5.61659 18.8408 6.39582 19.1377C7.91831 19.7177 10.1345 20 12.0003 20C13.8662 20 16.0832 19.7179 17.6058 19.1377C18.3849 18.8407 18.7505 18.5511 18.8753 18.3945C18.8838 18.3843 18.8936 18.3921 18.8948 18.3857L18.8616 18.2832C18.561 17.4705 17.9154 17.0001 17.0003 17H7.00031ZM12.0003 2C14.4854 2.00017 16.5003 4.01482 16.5003 6.5V9.5C16.5003 11.9852 14.4854 13.9998 12.0003 14C9.51503 14 7.50031 11.9853 7.50031 9.5V6.5C7.50031 4.01472 9.51503 2 12.0003 2ZM12.0003 4C10.6196 4 9.50031 5.11929 9.50031 6.5V9.5C9.50031 10.8807 10.6196 12 12.0003 12C13.3809 11.9998 14.5003 10.8806 14.5003 9.5V6.5C14.5003 5.11939 13.3809 4.00017 12.0003 4Z" fill="#FFFFFF" />
</svg>
