<?xml version="1.0" encoding="UTF-8"?>
<svg xmlns="http://www.w3.org/2000/svg" width="60.0" height="60.0" viewBox="0 0 24.0 24.0">
  <path d="M12,2C16.882,2 20.856,5.887 20.996,10.735L21,11V11.764C21.614,12.313 22,13.111 22,14V16C22,17.306 21.165,18.417 20,18.829V20C20,21.105 19.105,22 18,22H12C11.448,22 11,21.552 11,21C11,20.448 11.448,20 12,20H18V19C16.895,19 16,18.105 16,17V13C16,11.895 16.895,11 18,11H19C19,7.134 15.866,4 12,4C8.215,4 5.131,7.005 5.004,10.759L5,11H6C7.105,11 8,11.895 8,13V17C8,18.105 7.105,19 6,19H5C3.343,19 2,17.657 2,16V14C2,13.111 2.386,12.313 3,11.764V11C3,6.029 7.029,2 12,2Z" fill="#FFFFFF" />
</svg>
