<?xml version="1.0" encoding="UTF-8"?>
<svg xmlns="http://www.w3.org/2000/svg" width="220.0" height="220.0" viewBox="0 0 88.0 88.0">
  <defs>
    <clipPath id="clip0">
      <path d="M0,18.461h42.566v51.241h-42.566z" />
    </clipPath>
    <clipPath id="clip1">
      <path d="M39.463,18.187h48.537v51.346h-48.537z" />
    </clipPath>
  </defs>
  <g>
    <g clip-path="url(#clip0)">
      <path d="M2.508,36.181L4.952,34.857C10.308,31.956 14.873,24.115 15.769,18.463L13.324,19.788C12.429,25.439 7.862,33.282 2.508,36.181Z" fill="#008C7B" />
      <path d="M15.769,18.463C21.048,22.735 31.743,26.545 37.83,24.61C38.077,24.532 38.316,24.444 38.547,24.346C39.056,25.944 48.742,56.296 36.075,68.374C17.604,66.188 3.202,37.335 2.444,35.815C2.692,35.761 2.941,35.693 3.186,35.615C9.274,33.68 14.775,24.726 15.769,18.461V18.463ZM34.608,64.769C42.765,56.008 39.127,36.682 37.092,28.479C31.301,29.236 23.341,26.709 17.71,23.233C15.874,29.082 11.556,35.51 6.545,38.185C10.881,45.644 22.006,62.603 34.608,64.769Z" fill="#10CBB4" />
      <path d="M17.71,23.234C15.874,29.083 11.556,35.511 6.545,38.187C10.882,45.646 22.006,62.605 34.608,64.77C42.765,56.009 39.127,36.683 37.092,28.481C31.301,29.237 23.341,26.711 17.71,23.234Z" fill="#12DEC4" />
      <path d="M2.444,35.818L0,37.142C0.758,38.66 15.16,67.515 33.63,69.701L36.076,68.377C17.605,66.19 3.203,37.337 2.446,35.818H2.444Z" fill="#008C7B" />
      <path d="M32.408,35.091C32.719,35.065 33.053,35.217 33.343,35.554C33.928,36.235 34.124,37.427 33.781,38.25L27.802,52.355C27.576,52.898 27.207,53.256 26.807,53.383C26.433,53.503 26.019,53.419 25.659,53.102L19.087,47.271C18.239,46.511 18.007,44.983 18.58,43.898C18.874,43.333 19.32,43 19.794,42.921C20.221,42.851 20.673,42.988 21.059,43.348L26.016,48.001L31.592,35.758C31.782,35.343 32.081,35.118 32.407,35.092L32.408,35.091Z" fill="#FFFFFF" />
    </g>
    <g clip-path="url(#clip1)">
      <path d="M73.085,23.433C72.952,23.444 72.819,23.458 72.685,23.474C72.641,23.48 72.596,23.488 72.552,23.493C72.462,23.505 72.373,23.518 72.283,23.533C72.23,23.542 72.175,23.551 72.122,23.562C72.041,23.576 71.959,23.591 71.878,23.608C71.821,23.62 71.763,23.634 71.706,23.646C71.651,23.657 71.598,23.668 71.544,23.68C71.527,23.684 71.508,23.689 71.491,23.693C71.313,23.736 71.135,23.781 70.957,23.833C70.932,23.841 70.907,23.848 70.88,23.855C70.725,23.9 70.568,23.949 70.413,24.003C70.388,24.01 70.363,24.017 70.338,24.026C70.308,24.037 70.278,24.048 70.249,24.058C70.152,24.091 70.055,24.127 69.959,24.163C69.901,24.184 69.843,24.207 69.784,24.229C69.681,24.269 69.577,24.312 69.474,24.354C69.434,24.37 69.395,24.385 69.356,24.402C69.345,24.407 69.333,24.413 69.322,24.417C69.23,24.456 69.137,24.499 69.044,24.54C68.991,24.564 68.939,24.586 68.886,24.61C68.77,24.663 68.656,24.719 68.542,24.776C68.514,24.789 68.486,24.803 68.459,24.817C68.457,24.817 68.455,24.819 68.453,24.82C68.313,24.89 68.173,24.963 68.034,25.038C68.018,25.045 68.003,25.055 67.988,25.064C67.864,25.13 67.742,25.199 67.62,25.27C67.617,25.27 67.616,25.272 67.613,25.274C67.57,25.299 67.527,25.326 67.483,25.352C67.392,25.405 67.301,25.459 67.211,25.515C67.157,25.548 67.104,25.583 67.049,25.617C66.968,25.668 66.887,25.718 66.808,25.771C66.801,25.775 66.795,25.779 66.789,25.783C66.745,25.811 66.703,25.842 66.66,25.871C66.574,25.928 66.489,25.986 66.404,26.045C66.35,26.083 66.297,26.122 66.243,26.16C66.164,26.216 66.086,26.272 66.009,26.329C65.994,26.339 65.98,26.35 65.965,26.361C65.929,26.387 65.895,26.415 65.86,26.441C65.773,26.508 65.685,26.576 65.598,26.643C65.546,26.684 65.494,26.726 65.442,26.768C65.36,26.834 65.278,26.902 65.197,26.97C65.169,26.993 65.138,27.016 65.111,27.041C65.091,27.057 65.073,27.074 65.053,27.092C64.927,27.201 64.803,27.311 64.681,27.422C64.662,27.438 64.644,27.454 64.626,27.471C64.488,27.599 64.353,27.729 64.22,27.86C64.207,27.873 64.194,27.885 64.18,27.897C64.146,27.932 64.113,27.968 64.078,28.002C64.017,28.064 63.956,28.127 63.896,28.189C63.847,28.241 63.799,28.293 63.752,28.344C63.693,28.408 63.636,28.471 63.579,28.534C63.531,28.587 63.485,28.64 63.44,28.695C63.384,28.758 63.33,28.822 63.277,28.887C63.231,28.942 63.186,28.996 63.143,29.05C63.091,29.115 63.039,29.18 62.987,29.246C62.965,29.275 62.941,29.304 62.918,29.333C62.902,29.353 62.889,29.374 62.873,29.394C62.782,29.515 62.693,29.638 62.606,29.76C62.589,29.785 62.571,29.809 62.555,29.833C62.455,29.979 62.36,30.127 62.267,30.274C62.243,30.312 62.219,30.352 62.196,30.392C62.127,30.506 62.061,30.622 61.996,30.737C61.972,30.781 61.947,30.825 61.924,30.867C61.843,31.018 61.765,31.171 61.694,31.323L59.274,36.478L63.607,42.772L66.026,37.618C66.098,37.465 66.176,37.312 66.257,37.161C66.281,37.117 66.305,37.073 66.329,37.031C66.392,36.916 66.46,36.8 66.529,36.686C66.553,36.646 66.576,36.608 66.6,36.568C66.691,36.419 66.787,36.272 66.887,36.127C66.905,36.102 66.922,36.078 66.939,36.054C67.025,35.931 67.114,35.809 67.206,35.688C67.243,35.638 67.282,35.589 67.32,35.539C67.37,35.474 67.422,35.408 67.475,35.344C67.519,35.29 67.564,35.236 67.609,35.181C67.662,35.116 67.718,35.052 67.772,34.989C67.819,34.936 67.865,34.882 67.912,34.829C67.969,34.766 68.026,34.702 68.084,34.64C68.132,34.588 68.18,34.536 68.229,34.484C68.289,34.422 68.35,34.36 68.411,34.297C68.457,34.25 68.505,34.202 68.553,34.154C68.686,34.023 68.821,33.893 68.959,33.765C68.977,33.749 68.996,33.732 69.013,33.716C69.135,33.605 69.26,33.494 69.386,33.386C69.434,33.345 69.482,33.305 69.53,33.265C69.61,33.197 69.693,33.13 69.775,33.063C69.827,33.022 69.879,32.98 69.93,32.938C70.017,32.871 70.104,32.803 70.193,32.737C70.242,32.7 70.291,32.661 70.342,32.624C70.419,32.567 70.497,32.511 70.575,32.456C70.63,32.417 70.683,32.377 70.737,32.34C70.822,32.28 70.908,32.223 70.993,32.166C71.042,32.133 71.091,32.1 71.142,32.067C71.221,32.015 71.302,31.963 71.383,31.913C71.438,31.878 71.491,31.844 71.545,31.81C71.635,31.755 71.727,31.702 71.817,31.649C71.864,31.622 71.909,31.594 71.954,31.568C72.076,31.497 72.198,31.43 72.322,31.362C72.337,31.354 72.352,31.345 72.368,31.336C72.507,31.261 72.647,31.188 72.787,31.118C72.816,31.103 72.847,31.089 72.876,31.074C72.99,31.018 73.104,30.963 73.218,30.908C73.272,30.884 73.323,30.862 73.376,30.838C73.469,30.797 73.561,30.754 73.654,30.714C73.704,30.693 73.755,30.673 73.806,30.652C73.91,30.61 74.013,30.567 74.117,30.527C74.175,30.505 74.234,30.483 74.292,30.461C74.389,30.425 74.484,30.389 74.581,30.356C74.636,30.338 74.691,30.319 74.746,30.3C74.901,30.249 75.058,30.2 75.213,30.153C75.238,30.145 75.263,30.137 75.29,30.131C75.468,30.08 75.646,30.034 75.823,29.991C75.895,29.974 75.967,29.958 76.038,29.942C76.095,29.93 76.154,29.917 76.211,29.905C76.293,29.889 76.374,29.873 76.456,29.858C76.509,29.849 76.564,29.839 76.617,29.829C76.707,29.815 76.797,29.802 76.888,29.789C76.932,29.783 76.977,29.776 77.02,29.771C77.154,29.754 77.287,29.74 77.42,29.73C78.253,29.661 79.002,29.711 79.657,29.862C79.876,29.913 80.083,29.975 80.281,30.048C80.577,30.157 80.847,30.291 81.093,30.448C81.502,30.708 81.839,31.032 82.098,31.409L77.765,25.115C76.935,23.91 75.309,23.253 73.089,23.436L73.085,23.433Z" fill="#8B3D99" />
      <path d="M82.671,21.732C82.749,21.846 82.823,21.963 82.893,22.084C82.902,22.098 82.91,22.114 82.918,22.129C82.982,22.242 83.043,22.357 83.099,22.475C83.105,22.488 83.11,22.503 83.117,22.516C83.156,22.6 83.19,22.685 83.225,22.771C83.254,22.844 83.283,22.918 83.31,22.993C83.333,23.06 83.356,23.129 83.379,23.198C83.402,23.275 83.425,23.352 83.446,23.431C83.475,23.541 83.506,23.651 83.53,23.765C83.53,23.765 83.53,23.766 83.53,23.767C83.56,23.911 83.584,24.056 83.604,24.204C83.605,24.215 83.608,24.227 83.609,24.237C83.628,24.377 83.641,24.517 83.65,24.661C83.652,24.683 83.655,24.707 83.656,24.73C83.664,24.87 83.668,25.012 83.668,25.157C83.668,25.184 83.668,25.211 83.668,25.238C83.666,25.384 83.661,25.53 83.652,25.68C83.65,25.706 83.648,25.733 83.645,25.759C83.636,25.889 83.623,26.022 83.605,26.155C83.601,26.192 83.596,26.229 83.592,26.266C83.571,26.421 83.547,26.577 83.517,26.735C83.511,26.761 83.506,26.789 83.501,26.816C83.477,26.936 83.449,27.059 83.42,27.182C83.397,27.279 83.372,27.376 83.347,27.472C83.323,27.563 83.298,27.654 83.271,27.746C83.242,27.844 83.211,27.944 83.178,28.043C83.149,28.136 83.118,28.229 83.085,28.322C83.049,28.423 83.012,28.524 82.974,28.626C82.938,28.72 82.902,28.814 82.864,28.91C82.823,29.012 82.777,29.115 82.732,29.22C82.676,29.35 82.621,29.48 82.56,29.612L80.141,34.766L84.473,41.06L86.892,35.906C86.924,35.838 86.955,35.77 86.985,35.704C87.015,35.64 87.038,35.578 87.065,35.514C87.11,35.411 87.155,35.307 87.196,35.204C87.235,35.108 87.271,35.014 87.306,34.92C87.345,34.818 87.383,34.717 87.418,34.616C87.451,34.523 87.48,34.43 87.511,34.337C87.543,34.238 87.575,34.138 87.604,34.04C87.63,33.948 87.655,33.857 87.679,33.766C87.704,33.67 87.73,33.573 87.752,33.476C87.762,33.437 87.773,33.398 87.782,33.358C87.8,33.274 87.816,33.192 87.832,33.11C87.837,33.083 87.844,33.055 87.848,33.029C87.877,32.871 87.902,32.714 87.924,32.559C87.929,32.522 87.933,32.486 87.937,32.449C87.953,32.315 87.966,32.183 87.977,32.052C87.978,32.026 87.982,31.999 87.983,31.972C87.983,31.96 87.986,31.948 87.986,31.937C87.994,31.8 87.998,31.664 87.999,31.531C87.999,31.504 87.999,31.476 87.999,31.449C87.999,31.305 87.995,31.163 87.987,31.022C87.986,30.998 87.983,30.976 87.982,30.952C87.978,30.902 87.975,30.85 87.971,30.801C87.963,30.709 87.953,30.619 87.941,30.529C87.939,30.518 87.937,30.506 87.935,30.495C87.915,30.348 87.89,30.202 87.86,30.059C87.86,30.059 87.86,30.059 87.86,30.058C87.842,29.978 87.825,29.9 87.805,29.823C87.797,29.789 87.785,29.756 87.776,29.723C87.755,29.645 87.732,29.568 87.709,29.492C87.687,29.423 87.665,29.354 87.64,29.287C87.613,29.212 87.584,29.138 87.555,29.065C87.539,29.026 87.525,28.985 87.509,28.947C87.49,28.9 87.468,28.857 87.447,28.812C87.44,28.798 87.435,28.784 87.428,28.77C87.373,28.652 87.312,28.537 87.248,28.424C87.239,28.408 87.231,28.393 87.221,28.378C87.175,28.298 87.127,28.22 87.078,28.141C87.053,28.103 87.028,28.064 87.001,28.026L82.669,21.732H82.671Z" fill="#8B3D99" />
      <path d="M75.151,19.031C68.053,19.615 59.829,25.311 56.819,31.725L54.4,36.88L59.271,36.479L61.69,31.325C63.561,27.336 68.674,23.795 73.086,23.433C77.498,23.069 79.566,26.019 77.695,30.008L75.275,35.162L80.144,34.762L82.563,29.608C85.573,23.191 82.249,18.446 75.152,19.03L75.151,19.031Z" fill="#BD77C7" />
      <path d="M64.617,41.482C64.488,41.492 64.358,41.509 64.228,41.531C64.184,41.537 64.141,41.548 64.097,41.557C64.021,41.572 63.945,41.584 63.868,41.602C63.855,41.605 63.842,41.609 63.83,41.613C63.802,41.62 63.773,41.627 63.745,41.636C63.648,41.661 63.55,41.689 63.453,41.719C63.42,41.73 63.387,41.739 63.354,41.751C63.331,41.759 63.308,41.764 63.286,41.772C63.248,41.785 63.208,41.803 63.169,41.817C63.075,41.852 62.981,41.886 62.887,41.925C62.861,41.935 62.836,41.943 62.811,41.954C62.775,41.97 62.739,41.988 62.702,42.004C62.625,42.039 62.548,42.073 62.471,42.111C62.441,42.125 62.409,42.138 62.378,42.153C62.345,42.17 62.313,42.189 62.28,42.206C62.21,42.243 62.141,42.28 62.07,42.319C62.037,42.338 62.003,42.353 61.971,42.373C61.94,42.391 61.911,42.41 61.881,42.429C61.812,42.47 61.744,42.511 61.676,42.555C61.642,42.576 61.607,42.596 61.573,42.619C61.546,42.636 61.521,42.656 61.494,42.675C61.423,42.722 61.353,42.773 61.282,42.823C61.248,42.848 61.21,42.871 61.176,42.897C61.156,42.912 61.136,42.929 61.116,42.945C61.031,43.01 60.948,43.077 60.866,43.146C60.832,43.174 60.798,43.199 60.765,43.227C60.749,43.24 60.734,43.254 60.718,43.268C60.694,43.289 60.67,43.31 60.647,43.331C60.563,43.404 60.482,43.48 60.404,43.556C60.384,43.574 60.364,43.593 60.345,43.611C60.336,43.621 60.325,43.63 60.318,43.639C60.28,43.676 60.247,43.715 60.21,43.753C60.148,43.817 60.087,43.882 60.027,43.947C59.983,43.996 59.943,44.045 59.902,44.094C59.848,44.16 59.793,44.223 59.742,44.29C59.731,44.304 59.718,44.317 59.707,44.332C59.645,44.413 59.586,44.495 59.529,44.579C59.521,44.591 59.513,44.603 59.505,44.615C59.443,44.706 59.385,44.8 59.33,44.893C59.314,44.921 59.298,44.949 59.282,44.977C59.223,45.083 59.166,45.189 59.115,45.297C59.105,45.319 59.095,45.34 59.085,45.363C59.077,45.382 59.07,45.399 59.062,45.417C59.049,45.448 59.036,45.48 59.024,45.51C59.012,45.54 59.001,45.567 58.991,45.597C58.979,45.627 58.968,45.658 58.957,45.687C58.948,45.715 58.939,45.743 58.929,45.77C58.92,45.8 58.911,45.83 58.902,45.859C58.894,45.887 58.886,45.915 58.879,45.942C58.871,45.971 58.864,46 58.858,46.028C58.855,46.04 58.851,46.053 58.848,46.065C58.846,46.076 58.845,46.086 58.843,46.097C58.833,46.147 58.823,46.196 58.817,46.245C58.814,46.261 58.811,46.279 58.809,46.295C58.799,46.358 58.794,46.421 58.79,46.482C58.79,46.484 58.79,46.487 58.79,46.49C58.79,46.504 58.79,46.518 58.79,46.532C58.789,46.569 58.787,46.606 58.787,46.644C58.787,46.664 58.787,46.685 58.789,46.705C58.789,46.738 58.791,46.77 58.794,46.803C58.794,46.812 58.794,46.821 58.795,46.829C58.795,46.843 58.799,46.855 58.801,46.868C58.803,46.894 58.807,46.921 58.811,46.947C58.815,46.969 58.818,46.991 58.822,47.013C58.827,47.038 58.833,47.063 58.838,47.088C58.84,47.099 58.842,47.111 58.845,47.123C58.847,47.133 58.851,47.143 58.854,47.152C58.86,47.176 58.867,47.198 58.874,47.221C58.88,47.242 58.887,47.262 58.894,47.282C58.902,47.304 58.911,47.327 58.919,47.348C58.924,47.36 58.928,47.372 58.932,47.384C58.936,47.392 58.94,47.4 58.943,47.407C58.952,47.429 58.963,47.45 58.974,47.472C58.984,47.49 58.993,47.509 59.004,47.527C59.016,47.549 59.028,47.569 59.041,47.59C59.048,47.602 59.054,47.614 59.062,47.626C59.07,47.638 59.078,47.65 59.086,47.66L59.55,48.335L57.253,53.232C57.248,53.243 57.244,53.252 57.24,53.263C57.229,53.287 57.222,53.309 57.212,53.332C57.199,53.363 57.186,53.394 57.175,53.425C57.166,53.452 57.158,53.479 57.15,53.506C57.141,53.535 57.131,53.565 57.125,53.594C57.123,53.6 57.121,53.606 57.119,53.612C57.117,53.624 57.117,53.636 57.114,53.647C57.105,53.698 57.097,53.746 57.093,53.793C57.093,53.804 57.089,53.815 57.089,53.825C57.089,53.836 57.089,53.845 57.089,53.856C57.089,53.89 57.089,53.922 57.089,53.955C57.089,53.969 57.089,53.983 57.089,53.996C57.089,54.003 57.091,54.01 57.093,54.016C57.096,54.044 57.101,54.071 57.106,54.097C57.109,54.112 57.11,54.129 57.114,54.144C57.114,54.149 57.118,54.153 57.119,54.158C57.126,54.182 57.135,54.206 57.143,54.229C57.149,54.245 57.153,54.261 57.159,54.275C57.16,54.279 57.163,54.283 57.166,54.287C57.176,54.311 57.19,54.332 57.202,54.355C57.21,54.368 57.216,54.384 57.224,54.397C57.228,54.403 57.232,54.409 57.236,54.415L61.569,60.708C61.556,60.69 61.546,60.669 61.534,60.649C61.522,60.626 61.509,60.605 61.499,60.581C61.491,60.563 61.484,60.543 61.476,60.523C61.468,60.5 61.459,60.476 61.452,60.452C61.447,60.432 61.443,60.411 61.439,60.391C61.433,60.365 61.428,60.338 61.425,60.31C61.423,60.291 61.423,60.269 61.422,60.249C61.42,60.217 61.419,60.184 61.422,60.15C61.422,60.13 61.424,60.109 61.425,60.089C61.43,60.041 61.437,59.992 61.447,59.943C61.451,59.925 61.452,59.908 61.457,59.89C61.464,59.861 61.473,59.83 61.483,59.801C61.491,59.774 61.497,59.746 61.508,59.72C61.518,59.689 61.532,59.658 61.545,59.627C61.558,59.594 61.57,59.562 61.586,59.527L63.965,54.457L63.148,53.269C63.147,53.26 63.145,53.252 63.144,53.243C63.14,53.216 63.137,53.191 63.133,53.165C63.131,53.143 63.128,53.121 63.127,53.098C63.124,53.066 63.123,53.033 63.121,53.001C63.121,52.981 63.12,52.961 63.12,52.94C63.12,52.904 63.12,52.867 63.123,52.83C63.123,52.813 63.123,52.796 63.124,52.778C63.128,52.717 63.135,52.655 63.143,52.591C63.145,52.575 63.148,52.558 63.151,52.542C63.159,52.493 63.167,52.444 63.177,52.395C63.182,52.371 63.186,52.348 63.193,52.325C63.2,52.295 63.208,52.266 63.216,52.237C63.222,52.209 63.23,52.182 63.238,52.155C63.248,52.125 63.257,52.095 63.266,52.066C63.275,52.038 63.285,52.01 63.294,51.982C63.305,51.952 63.315,51.922 63.327,51.892C63.338,51.863 63.348,51.835 63.36,51.806C63.372,51.775 63.386,51.745 63.399,51.714C63.416,51.674 63.433,51.634 63.452,51.593C63.502,51.486 63.559,51.38 63.619,51.273C63.635,51.246 63.651,51.218 63.667,51.19C63.722,51.096 63.781,51.003 63.842,50.911C63.85,50.899 63.858,50.887 63.866,50.875C63.932,50.777 64.005,50.682 64.079,50.586C64.131,50.52 64.186,50.456 64.24,50.391C64.281,50.342 64.321,50.292 64.365,50.244C64.423,50.177 64.486,50.114 64.548,50.05C64.593,50.004 64.637,49.954 64.683,49.909C64.702,49.891 64.722,49.872 64.742,49.854C64.821,49.777 64.902,49.702 64.984,49.629C65.008,49.608 65.032,49.587 65.056,49.566C65.104,49.525 65.154,49.485 65.203,49.445C65.286,49.377 65.369,49.31 65.454,49.244C65.509,49.203 65.564,49.164 65.62,49.124C65.69,49.073 65.761,49.023 65.832,48.975C65.892,48.935 65.953,48.896 66.014,48.857C66.082,48.815 66.15,48.772 66.219,48.731C66.281,48.694 66.345,48.657 66.408,48.621C66.477,48.582 66.548,48.544 66.618,48.508C66.682,48.475 66.745,48.443 66.809,48.412C66.886,48.375 66.963,48.34 67.04,48.306C67.101,48.28 67.162,48.252 67.225,48.227C67.319,48.188 67.413,48.152 67.507,48.119C67.568,48.097 67.629,48.074 67.692,48.053C67.725,48.042 67.758,48.032 67.791,48.021C67.888,47.991 67.986,47.963 68.083,47.937C68.111,47.931 68.14,47.922 68.168,47.915C68.257,47.894 68.346,47.876 68.435,47.859C68.479,47.851 68.522,47.841 68.566,47.833C68.696,47.811 68.826,47.794 68.955,47.784C69.625,47.728 70.184,47.831 70.606,48.058C70.859,48.195 71.063,48.375 71.213,48.593L66.881,42.299C66.48,41.718 65.696,41.402 64.622,41.489L64.617,41.482Z" fill="#5E186C" />
      <path d="M82.58,35.372C82.598,35.404 82.617,35.436 82.632,35.469C82.644,35.496 82.653,35.525 82.663,35.553C82.675,35.586 82.689,35.619 82.698,35.655C82.706,35.684 82.711,35.713 82.716,35.742C82.725,35.781 82.731,35.819 82.736,35.858C82.743,35.912 82.747,35.968 82.747,36.025C82.747,36.034 82.747,36.042 82.747,36.052C82.747,36.11 82.742,36.168 82.735,36.229C82.734,36.241 82.732,36.255 82.731,36.266C82.722,36.332 82.71,36.397 82.694,36.464C82.685,36.507 82.67,36.549 82.658,36.593C82.646,36.632 82.637,36.67 82.622,36.71C82.606,36.754 82.588,36.799 82.569,36.844C82.549,36.892 82.532,36.938 82.509,36.987L72.537,58.242L76.87,64.536L86.842,43.281C86.849,43.266 86.855,43.252 86.862,43.237C86.877,43.203 86.887,43.171 86.902,43.138C86.921,43.093 86.939,43.048 86.955,43.004C86.968,42.964 86.979,42.925 86.991,42.887C87.004,42.845 87.017,42.801 87.027,42.758C87.028,42.75 87.032,42.742 87.033,42.734C87.047,42.676 87.056,42.618 87.064,42.562C87.065,42.55 87.066,42.537 87.068,42.525C87.072,42.493 87.076,42.46 87.078,42.428C87.08,42.4 87.08,42.373 87.081,42.347C87.081,42.338 87.081,42.33 87.081,42.32C87.081,42.274 87.08,42.227 87.076,42.182C87.076,42.172 87.072,42.162 87.07,42.153C87.066,42.113 87.059,42.075 87.05,42.036C87.047,42.015 87.045,41.991 87.04,41.97C87.039,41.962 87.035,41.955 87.032,41.949C87.023,41.914 87.009,41.881 86.997,41.847C86.99,41.825 86.984,41.801 86.975,41.78C86.972,41.775 86.968,41.77 86.966,41.763C86.951,41.73 86.931,41.698 86.914,41.666C86.902,41.646 86.894,41.625 86.881,41.605C86.875,41.597 86.87,41.588 86.863,41.58L82.531,35.286C82.549,35.314 82.564,35.343 82.58,35.372Z" fill="#742384" />
      <path d="M41.305,63.229C40.535,63.292 39.97,63.063 39.681,62.643L44.013,68.937C44.303,69.356 44.867,69.586 45.638,69.522L72.907,67.28L68.575,60.986L41.305,63.229Z" fill="#742384" />
      <path d="M76.699,64.85C76.761,64.747 76.819,64.642 76.868,64.536L72.536,58.242C72.487,58.348 72.428,58.453 72.366,58.556C72.347,58.587 72.329,58.616 72.309,58.645C72.258,58.723 72.205,58.8 72.148,58.877C72.127,58.905 72.107,58.934 72.085,58.962C72.047,59.01 72.009,59.056 71.969,59.103C71.938,59.139 71.911,59.175 71.879,59.209C71.836,59.257 71.793,59.302 71.747,59.348C71.717,59.38 71.688,59.412 71.656,59.444C71.563,59.535 71.467,59.624 71.367,59.709C71.336,59.736 71.305,59.76 71.274,59.785C71.214,59.834 71.153,59.883 71.091,59.931C71.052,59.96 71.012,59.989 70.973,60.017C70.921,60.054 70.87,60.09 70.817,60.126C70.775,60.155 70.731,60.183 70.687,60.211C70.638,60.243 70.588,60.273 70.538,60.303C70.493,60.329 70.448,60.356 70.402,60.381C70.351,60.409 70.301,60.437 70.249,60.463C70.204,60.487 70.158,60.509 70.113,60.532C70.057,60.559 70.001,60.585 69.945,60.609C69.902,60.629 69.858,60.647 69.813,60.666C69.745,60.694 69.676,60.719 69.608,60.744C69.571,60.758 69.533,60.772 69.495,60.786C69.372,60.827 69.249,60.862 69.127,60.892C69.066,60.906 69.005,60.918 68.945,60.929C68.914,60.934 68.882,60.942 68.852,60.947C68.759,60.963 68.666,60.975 68.573,60.982L72.906,67.276C72.997,67.268 73.09,67.256 73.185,67.241C73.215,67.236 73.247,67.229 73.277,67.223C73.332,67.212 73.385,67.203 73.439,67.191C73.446,67.19 73.453,67.187 73.459,67.186C73.583,67.157 73.705,67.121 73.828,67.079C73.837,67.077 73.847,67.074 73.856,67.072C73.884,67.062 73.913,67.049 73.941,67.038C74.009,67.013 74.078,66.988 74.145,66.96C74.163,66.953 74.18,66.947 74.198,66.94C74.225,66.928 74.252,66.915 74.278,66.903C74.334,66.878 74.39,66.853 74.445,66.826C74.466,66.815 74.489,66.806 74.51,66.796C74.534,66.784 74.558,66.769 74.583,66.757C74.635,66.73 74.685,66.703 74.736,66.675C74.76,66.661 74.784,66.65 74.806,66.636C74.829,66.623 74.85,66.608 74.872,66.595C74.923,66.565 74.972,66.534 75.021,66.504C75.045,66.488 75.07,66.474 75.094,66.459C75.114,66.445 75.131,66.432 75.151,66.419C75.203,66.383 75.255,66.347 75.306,66.31C75.332,66.291 75.358,66.275 75.382,66.257C75.397,66.246 75.41,66.234 75.424,66.224C75.487,66.176 75.548,66.127 75.608,66.078C75.632,66.058 75.657,66.04 75.679,66.021C75.686,66.014 75.693,66.009 75.699,66.002C75.799,65.916 75.896,65.828 75.989,65.737C75.994,65.731 75.999,65.727 76.004,65.722C76.031,65.696 76.055,65.668 76.081,65.641C76.125,65.595 76.17,65.549 76.213,65.502C76.245,65.467 76.272,65.431 76.303,65.396C76.343,65.349 76.381,65.303 76.419,65.255C76.426,65.244 76.437,65.234 76.445,65.223C76.458,65.206 76.469,65.187 76.482,65.17C76.539,65.093 76.592,65.016 76.643,64.938C76.661,64.909 76.681,64.878 76.7,64.849L76.699,64.85Z" fill="#742384" />
      <path d="M80.907,34.701C82.437,34.575 83.159,35.604 82.508,36.987L72.536,58.242C71.887,59.624 70.104,60.86 68.574,60.986L41.304,63.229C39.774,63.354 39.052,62.326 39.702,60.942L49.674,39.688C50.323,38.305 52.107,37.069 53.637,36.943L54.4,36.881L59.27,36.48L75.275,35.164L80.144,34.763L80.908,34.701H80.907ZM63.491,47.837C64.928,47.139 66.234,45.947 66.841,44.654C67.746,42.726 66.749,41.306 64.617,41.482C62.483,41.657 60.02,43.362 59.116,45.29C58.51,46.583 58.758,47.646 59.628,48.155L57.249,53.225C56.798,54.186 57.298,54.9 58.361,54.813C59.423,54.725 60.661,53.868 61.112,52.907L63.491,47.837Z" fill="#A35AAD" />
      <path d="M52.873,33.846L56.066,31.635L64.187,43.362C64.656,44.039 64.487,44.97 63.809,45.439L63.071,45.95C62.394,46.419 61.463,46.25 60.994,45.572L52.874,33.845L52.873,33.846Z" fill="#F7D163" />
      <path d="M52.833,20.365L50.816,20.526C51.531,20.469 52.222,20.826 52.815,21.677C52.9,21.799 52.98,21.918 53.056,22.033C53.079,22.07 53.102,22.106 53.126,22.143C53.175,22.22 53.224,22.297 53.269,22.373C53.294,22.414 53.318,22.455 53.342,22.496C53.382,22.564 53.421,22.632 53.458,22.698C53.48,22.739 53.503,22.779 53.524,22.819C53.561,22.888 53.596,22.957 53.629,23.023C53.643,23.051 53.658,23.08 53.671,23.108C53.716,23.202 53.759,23.295 53.796,23.385C53.812,23.422 53.824,23.458 53.839,23.495C53.862,23.555 53.888,23.616 53.908,23.676C53.91,23.685 53.913,23.694 53.917,23.704C53.943,23.781 53.967,23.858 53.987,23.932C53.992,23.951 53.996,23.968 54.002,23.986C54.022,24.063 54.04,24.14 54.055,24.215C54.055,24.221 54.057,24.228 54.059,24.235C54.073,24.314 54.085,24.391 54.095,24.467C54.095,24.472 54.095,24.479 54.096,24.484C54.104,24.56 54.109,24.633 54.111,24.704C54.111,24.712 54.111,24.72 54.111,24.728C54.112,24.8 54.111,24.87 54.107,24.939C54.107,24.948 54.105,24.958 54.104,24.966C54.1,25.02 54.093,25.074 54.087,25.128C54.083,25.158 54.079,25.187 54.073,25.216C54.067,25.258 54.059,25.299 54.049,25.339C54.044,25.366 54.038,25.393 54.031,25.421C54.02,25.462 54.008,25.504 53.996,25.546C53.988,25.571 53.982,25.596 53.974,25.621C53.959,25.666 53.943,25.71 53.926,25.754C53.918,25.775 53.911,25.796 53.902,25.816C53.876,25.881 53.848,25.945 53.819,26.009C53.773,26.104 53.723,26.198 53.67,26.293C53.658,26.314 53.647,26.334 53.636,26.355C53.582,26.447 53.527,26.538 53.467,26.63C53.447,26.66 53.426,26.692 53.405,26.724C53.381,26.76 53.358,26.796 53.333,26.831C53.31,26.866 53.286,26.899 53.263,26.934C53.239,26.969 53.214,27.004 53.188,27.04C53.163,27.076 53.138,27.111 53.111,27.149C53.085,27.186 53.06,27.222 53.033,27.259C53.001,27.302 52.969,27.348 52.938,27.393C52.899,27.446 52.862,27.499 52.823,27.552C52.792,27.596 52.761,27.64 52.729,27.683C52.703,27.721 52.676,27.758 52.651,27.795C52.62,27.837 52.591,27.88 52.561,27.922C52.534,27.959 52.507,27.998 52.482,28.036C52.452,28.08 52.423,28.123 52.392,28.168C52.366,28.208 52.339,28.247 52.311,28.288C52.282,28.334 52.251,28.377 52.222,28.424C52.212,28.441 52.2,28.457 52.189,28.474C52.176,28.496 52.162,28.518 52.149,28.539C52.112,28.598 52.075,28.657 52.038,28.717C52.014,28.757 51.989,28.797 51.965,28.837C51.928,28.899 51.89,28.961 51.853,29.026C51.829,29.066 51.807,29.107 51.784,29.148C51.744,29.219 51.706,29.292 51.666,29.366C51.646,29.403 51.626,29.439 51.608,29.476C51.549,29.588 51.492,29.703 51.437,29.821L51.411,29.874C50.586,31.621 50.225,33.615 49.722,34.681C49.694,34.739 49.666,34.793 49.639,34.845C49.629,34.862 49.62,34.877 49.611,34.894C49.591,34.928 49.572,34.962 49.552,34.994C49.547,35.002 49.542,35.008 49.536,35.016C49.506,35.063 49.475,35.105 49.444,35.144C49.429,35.162 49.413,35.18 49.398,35.197C49.385,35.211 49.373,35.226 49.36,35.238C49.336,35.262 49.312,35.283 49.288,35.303C49.284,35.307 49.279,35.311 49.275,35.315C49.246,35.338 49.215,35.357 49.183,35.375C49.178,35.377 49.172,35.381 49.166,35.384C49.136,35.4 49.104,35.413 49.072,35.423C49.067,35.424 49.063,35.425 49.057,35.426C49.023,35.436 48.988,35.444 48.951,35.446L50.968,35.286C50.968,35.286 50.972,35.286 50.975,35.286C50.997,35.284 51.019,35.28 51.04,35.277C51.052,35.274 51.062,35.27 51.074,35.267C51.08,35.266 51.084,35.264 51.089,35.263C51.093,35.263 51.097,35.262 51.101,35.261C51.122,35.254 51.142,35.246 51.162,35.237C51.169,35.233 51.176,35.229 51.183,35.225C51.188,35.222 51.195,35.218 51.2,35.215C51.207,35.211 51.215,35.209 51.222,35.203C51.244,35.19 51.265,35.176 51.288,35.158C51.288,35.158 51.291,35.156 51.292,35.156C51.296,35.152 51.301,35.148 51.305,35.144C51.324,35.129 51.342,35.113 51.36,35.096C51.365,35.091 51.37,35.084 51.377,35.077C51.39,35.064 51.403,35.05 51.415,35.036C51.426,35.026 51.435,35.015 51.446,35.003C51.451,34.996 51.455,34.988 51.46,34.983C51.492,34.943 51.523,34.901 51.553,34.856C51.557,34.849 51.561,34.845 51.565,34.839C51.565,34.837 51.568,34.835 51.568,34.833C51.588,34.803 51.606,34.768 51.626,34.734C51.636,34.718 51.645,34.702 51.654,34.686C51.682,34.634 51.71,34.578 51.738,34.521C52.242,33.456 52.602,31.461 53.427,29.715L53.452,29.662C53.508,29.544 53.565,29.428 53.624,29.317C53.643,29.28 53.662,29.244 53.682,29.207C53.722,29.132 53.76,29.059 53.8,28.989C53.823,28.948 53.847,28.908 53.869,28.868C53.906,28.805 53.943,28.74 53.98,28.679C54.004,28.639 54.028,28.599 54.054,28.559C54.091,28.5 54.128,28.44 54.165,28.381C54.19,28.343 54.214,28.304 54.239,28.266C54.269,28.221 54.299,28.176 54.328,28.131C54.355,28.091 54.383,28.05 54.409,28.01C54.438,27.966 54.469,27.922 54.498,27.88C54.525,27.841 54.551,27.803 54.578,27.764C54.608,27.721 54.639,27.678 54.668,27.636C54.693,27.6 54.72,27.563 54.745,27.527C54.778,27.48 54.811,27.434 54.844,27.389C54.882,27.337 54.917,27.287 54.953,27.236C54.986,27.191 55.018,27.145 55.051,27.101C55.078,27.064 55.104,27.027 55.13,26.991C55.155,26.955 55.181,26.918 55.207,26.882C55.232,26.846 55.257,26.809 55.282,26.773C55.305,26.74 55.329,26.705 55.351,26.672C55.376,26.635 55.4,26.599 55.424,26.563C55.442,26.537 55.46,26.509 55.477,26.483C55.48,26.479 55.481,26.475 55.484,26.472C55.544,26.379 55.599,26.287 55.653,26.196C55.665,26.176 55.675,26.155 55.687,26.135C55.74,26.041 55.791,25.945 55.836,25.851C55.866,25.787 55.894,25.722 55.919,25.658C55.927,25.637 55.935,25.617 55.943,25.596C55.96,25.552 55.976,25.507 55.991,25.463C55.999,25.438 56.007,25.413 56.014,25.386C56.025,25.345 56.037,25.304 56.048,25.263C56.055,25.235 56.061,25.208 56.067,25.181C56.072,25.159 56.077,25.138 56.081,25.117C56.085,25.098 56.086,25.079 56.09,25.059C56.096,25.029 56.1,24.999 56.104,24.968C56.106,24.951 56.109,24.935 56.112,24.918C56.116,24.881 56.118,24.844 56.121,24.806C56.121,24.797 56.122,24.789 56.124,24.78C56.124,24.776 56.124,24.773 56.124,24.769C56.126,24.727 56.128,24.683 56.128,24.639C56.128,24.617 56.128,24.593 56.128,24.569C56.128,24.561 56.128,24.553 56.128,24.545C56.128,24.538 56.128,24.53 56.128,24.524C56.126,24.485 56.124,24.447 56.121,24.408C56.118,24.381 56.116,24.353 56.113,24.326C56.113,24.321 56.113,24.314 56.112,24.309C56.112,24.303 56.112,24.299 56.11,24.294C56.105,24.254 56.1,24.213 56.093,24.172C56.088,24.14 56.083,24.108 56.076,24.077C56.076,24.07 56.073,24.063 56.072,24.058C56.072,24.053 56.07,24.049 56.069,24.045C56.06,23.997 56.049,23.948 56.037,23.899C56.032,23.876 56.025,23.854 56.019,23.831C56.014,23.813 56.009,23.795 56.004,23.777C55.999,23.76 55.996,23.743 55.991,23.726C55.974,23.668 55.954,23.608 55.934,23.547C55.931,23.538 55.929,23.53 55.926,23.521C55.926,23.518 55.926,23.517 55.925,23.515C55.905,23.458 55.879,23.397 55.857,23.339C55.842,23.303 55.83,23.268 55.816,23.231C55.816,23.231 55.816,23.229 55.816,23.227C55.779,23.138 55.736,23.047 55.692,22.954C55.679,22.926 55.665,22.897 55.65,22.869C55.629,22.828 55.61,22.787 55.588,22.744C55.574,22.718 55.558,22.691 55.544,22.665C55.522,22.625 55.5,22.584 55.477,22.544C55.442,22.478 55.402,22.411 55.362,22.342C55.338,22.301 55.314,22.261 55.289,22.219C55.244,22.145 55.195,22.067 55.146,21.989C55.122,21.952 55.1,21.916 55.075,21.879C55,21.764 54.92,21.646 54.835,21.524C54.242,20.671 53.55,20.315 52.835,20.372L52.833,20.365Z" fill="#C39820" />
      <path d="M48.026,34.841C47.982,34.767 47.94,34.691 47.899,34.613C47.87,34.559 47.842,34.503 47.814,34.447C47.794,34.407 47.774,34.368 47.754,34.328C47.722,34.261 47.693,34.195 47.663,34.127C47.647,34.09 47.629,34.054 47.613,34.017C47.602,33.989 47.591,33.96 47.579,33.931C47.528,33.809 47.481,33.683 47.436,33.555C47.421,33.514 47.407,33.473 47.392,33.431C47.352,33.313 47.314,33.193 47.276,33.071C47.268,33.046 47.261,33.022 47.254,32.997C47.213,32.855 47.174,32.711 47.138,32.565C47.128,32.524 47.12,32.483 47.111,32.442C47.085,32.337 47.063,32.231 47.04,32.122C47.03,32.07 47.019,32.017 47.01,31.964C46.99,31.861 46.971,31.757 46.954,31.651C46.946,31.599 46.937,31.546 46.929,31.495C46.909,31.362 46.89,31.227 46.873,31.091C46.87,31.065 46.865,31.038 46.862,31.01C46.842,30.842 46.826,30.672 46.813,30.501C46.809,30.457 46.807,30.413 46.804,30.368C46.793,30.219 46.785,30.071 46.779,29.92C46.777,29.876 46.775,29.832 46.773,29.788C46.767,29.588 46.764,29.386 46.764,29.182C46.764,29.145 46.764,29.106 46.765,29.069C46.768,28.829 46.775,28.588 46.788,28.346C46.791,28.291 46.795,28.236 46.799,28.181C46.805,28.083 46.811,27.983 46.819,27.885C46.824,27.822 46.831,27.758 46.836,27.693C46.844,27.6 46.853,27.507 46.862,27.415C46.868,27.366 46.874,27.316 46.88,27.267C46.898,27.106 46.919,26.944 46.942,26.784C46.949,26.74 46.954,26.696 46.961,26.652C46.99,26.46 47.023,26.266 47.059,26.075C47.069,26.015 47.083,25.954 47.095,25.895C47.113,25.801 47.132,25.706 47.152,25.612C47.166,25.546 47.181,25.481 47.195,25.414C47.217,25.324 47.237,25.233 47.259,25.142C47.275,25.076 47.292,25.01 47.31,24.942C47.332,24.853 47.356,24.764 47.38,24.675C47.398,24.609 47.417,24.542 47.436,24.477C47.461,24.389 47.487,24.301 47.515,24.213C47.535,24.148 47.555,24.083 47.576,24.018C47.604,23.931 47.635,23.843 47.664,23.756C47.685,23.693 47.706,23.629 47.729,23.567C47.761,23.477 47.795,23.387 47.828,23.298C47.851,23.239 47.872,23.181 47.895,23.124C47.933,23.026 47.973,22.929 48.014,22.832C48.034,22.784 48.053,22.736 48.074,22.689C48.136,22.545 48.2,22.403 48.266,22.263C48.334,22.119 48.404,21.981 48.475,21.845C48.496,21.803 48.519,21.764 48.54,21.723C48.591,21.626 48.643,21.531 48.695,21.439C48.719,21.397 48.741,21.355 48.765,21.315C48.825,21.213 48.886,21.114 48.947,21.015C48.962,20.991 48.976,20.968 48.991,20.945C49.064,20.831 49.139,20.719 49.215,20.612C49.234,20.587 49.251,20.56 49.27,20.535C49.341,20.434 49.414,20.334 49.488,20.24C49.494,20.234 49.499,20.226 49.506,20.218C49.58,20.124 49.654,20.033 49.73,19.946C49.774,19.894 49.819,19.845 49.863,19.796C49.909,19.744 49.956,19.694 50.002,19.645C50.047,19.598 50.092,19.553 50.137,19.508C50.187,19.459 50.236,19.411 50.286,19.365C50.319,19.334 50.352,19.305 50.386,19.274C50.441,19.225 50.498,19.176 50.554,19.131C50.587,19.103 50.622,19.076 50.655,19.05C50.723,18.997 50.792,18.945 50.861,18.897C50.878,18.885 50.895,18.872 50.911,18.86C50.999,18.801 51.085,18.745 51.173,18.693C51.191,18.682 51.21,18.672 51.228,18.661C51.3,18.62 51.371,18.582 51.444,18.546C51.464,18.535 51.486,18.524 51.506,18.515C51.59,18.475 51.675,18.438 51.76,18.405C51.778,18.398 51.793,18.393 51.811,18.386C51.868,18.365 51.925,18.348 51.982,18.329C52.055,18.307 52.128,18.287 52.2,18.27C52.238,18.26 52.277,18.25 52.316,18.243C52.392,18.229 52.469,18.218 52.545,18.209C52.583,18.205 52.622,18.197 52.66,18.194L50.643,18.355C50.63,18.355 50.617,18.357 50.604,18.359C50.579,18.361 50.553,18.368 50.528,18.371C50.452,18.38 50.375,18.39 50.299,18.405C50.286,18.408 50.273,18.408 50.259,18.412C50.234,18.417 50.209,18.426 50.184,18.433C50.111,18.45 50.038,18.47 49.965,18.493C49.944,18.499 49.922,18.503 49.903,18.51C49.867,18.522 49.831,18.537 49.794,18.55C49.777,18.556 49.761,18.562 49.743,18.568C49.67,18.596 49.597,18.627 49.526,18.66C49.514,18.665 49.5,18.672 49.488,18.678C49.467,18.688 49.447,18.698 49.426,18.709C49.354,18.745 49.283,18.783 49.211,18.824C49.193,18.835 49.174,18.846 49.154,18.856C49.145,18.862 49.134,18.867 49.125,18.872C49.047,18.919 48.97,18.969 48.893,19.022C48.875,19.034 48.858,19.047 48.842,19.059C48.793,19.094 48.743,19.128 48.694,19.167C48.675,19.181 48.657,19.197 48.637,19.212C48.603,19.238 48.569,19.266 48.536,19.293C48.479,19.339 48.423,19.387 48.367,19.436C48.334,19.465 48.301,19.496 48.268,19.526C48.249,19.544 48.232,19.558 48.213,19.576C48.181,19.605 48.151,19.639 48.119,19.67C48.074,19.715 48.029,19.759 47.984,19.806C47.937,19.855 47.891,19.907 47.844,19.958C47.799,20.007 47.756,20.056 47.712,20.108C47.697,20.125 47.682,20.139 47.668,20.157C47.607,20.228 47.547,20.304 47.486,20.38C47.481,20.386 47.475,20.394 47.469,20.402C47.395,20.498 47.321,20.596 47.25,20.697C47.231,20.722 47.214,20.747 47.195,20.774C47.124,20.876 47.054,20.981 46.983,21.088C46.979,21.094 46.975,21.1 46.972,21.107C46.958,21.129 46.943,21.155 46.929,21.177C46.868,21.275 46.807,21.375 46.747,21.477C46.723,21.518 46.699,21.559 46.677,21.601C46.624,21.693 46.572,21.788 46.521,21.885C46.5,21.926 46.478,21.965 46.456,22.007C46.386,22.143 46.316,22.281 46.248,22.425C46.182,22.565 46.118,22.707 46.056,22.851C46.036,22.898 46.016,22.946 45.996,22.995C45.956,23.092 45.915,23.189 45.876,23.286C45.854,23.344 45.833,23.403 45.81,23.461C45.777,23.55 45.742,23.64 45.71,23.73C45.688,23.793 45.667,23.855 45.646,23.919C45.615,24.006 45.586,24.094 45.558,24.181C45.537,24.247 45.517,24.312 45.497,24.377C45.47,24.464 45.444,24.552 45.417,24.641C45.399,24.707 45.379,24.773 45.361,24.84C45.338,24.929 45.314,25.016 45.291,25.105C45.274,25.171 45.257,25.238 45.241,25.306C45.218,25.396 45.197,25.487 45.177,25.577C45.162,25.642 45.147,25.709 45.133,25.774C45.113,25.868 45.093,25.964 45.075,26.058C45.066,26.106 45.055,26.152 45.046,26.2C45.043,26.212 45.042,26.224 45.039,26.237C45.003,26.429 44.97,26.622 44.941,26.816C44.934,26.859 44.929,26.903 44.922,26.947C44.898,27.108 44.879,27.269 44.86,27.43C44.856,27.459 44.852,27.49 44.848,27.519C44.845,27.539 44.844,27.559 44.843,27.579C44.832,27.671 44.824,27.764 44.816,27.856C44.811,27.92 44.804,27.985 44.799,28.048C44.791,28.148 44.784,28.246 44.779,28.346C44.776,28.395 44.771,28.444 44.768,28.492C44.768,28.497 44.768,28.503 44.768,28.509C44.755,28.752 44.749,28.992 44.746,29.232C44.746,29.255 44.744,29.277 44.743,29.298C44.743,29.314 44.743,29.329 44.743,29.345C44.743,29.548 44.746,29.75 44.752,29.95C44.752,29.965 44.752,29.98 44.752,29.995C44.752,30.024 44.756,30.053 44.758,30.083C44.764,30.233 44.772,30.381 44.783,30.53C44.786,30.559 44.786,30.588 44.788,30.618C44.788,30.633 44.791,30.648 44.792,30.664C44.806,30.835 44.823,31.005 44.841,31.174C44.841,31.177 44.841,31.183 44.843,31.187C44.845,31.209 44.849,31.23 44.852,31.253C44.868,31.388 44.887,31.524 44.908,31.656C44.91,31.676 44.913,31.698 44.916,31.718C44.921,31.749 44.928,31.781 44.933,31.813C44.95,31.918 44.969,32.023 44.989,32.126C44.994,32.157 44.999,32.189 45.006,32.219C45.01,32.24 45.015,32.262 45.021,32.283C45.043,32.39 45.067,32.496 45.091,32.603C45.099,32.634 45.104,32.668 45.112,32.7C45.115,32.709 45.117,32.717 45.119,32.726C45.154,32.872 45.193,33.017 45.234,33.157C45.236,33.163 45.237,33.168 45.238,33.172C45.243,33.192 45.251,33.212 45.257,33.232C45.292,33.354 45.331,33.473 45.372,33.591C45.379,33.61 45.384,33.631 45.391,33.65C45.399,33.672 45.408,33.693 45.416,33.716C45.461,33.843 45.509,33.97 45.559,34.091C45.567,34.111 45.574,34.131 45.582,34.151C45.586,34.16 45.59,34.168 45.594,34.178C45.61,34.215 45.627,34.252 45.643,34.288C45.672,34.356 45.703,34.423 45.734,34.488C45.753,34.528 45.773,34.568 45.793,34.608C45.813,34.646 45.83,34.686 45.85,34.724C45.859,34.742 45.868,34.756 45.878,34.774C45.919,34.851 45.961,34.926 46.005,35C46.025,35.036 46.045,35.072 46.066,35.107C46.131,35.214 46.199,35.319 46.268,35.418C47.092,36.601 48.122,37.121 49.19,37.036L51.207,36.876C50.139,36.96 49.109,36.44 48.285,35.258C48.215,35.157 48.148,35.052 48.083,34.946C48.062,34.912 48.042,34.876 48.022,34.84L48.026,34.841Z" fill="#F9DD8F" />
      <path d="M48.269,22.267C46.254,26.532 46.263,32.349 48.291,35.259C50.018,37.738 52.652,37.307 54.642,34.49L56.375,30.824C57.581,26.883 57.318,22.295 55.592,19.814C53.564,16.904 50.286,18.002 48.271,22.267H48.269ZM55.835,25.848C55.33,26.914 54.277,27.912 53.451,29.659L53.426,29.712C52.601,31.459 52.24,33.453 51.737,34.519C51.223,35.606 50.561,35.726 49.105,33.636C47.51,31.347 47.792,27.157 49.349,23.86L49.375,23.807C50.933,20.511 53.239,19.226 54.834,21.516C56.29,23.604 56.348,24.761 55.835,25.847V25.848Z" fill="#F4C12A" />
      <path d="M59.805,36.978C59.777,37.095 59.736,37.217 59.675,37.344C59.225,38.296 58.004,39.141 56.949,39.232C56.805,39.244 56.671,39.24 56.548,39.224C56.369,39.982 56.858,40.497 57.772,40.419C58.827,40.329 60.048,39.482 60.498,38.53C60.886,37.709 60.575,37.077 59.805,36.977V36.978Z" fill="#F4C12A" />
      <path d="M58.248,34.73C58.22,34.847 58.179,34.969 58.118,35.096C57.668,36.048 56.447,36.893 55.393,36.984C55.248,36.996 55.114,36.992 54.992,36.977C54.813,37.734 55.301,38.249 56.215,38.171C57.27,38.081 58.491,37.234 58.941,36.282C59.33,35.461 59.018,34.829 58.248,34.729V34.73Z" fill="#F4C12A" />
    </g>
  </g>
</svg>
