<?xml version="1.0" encoding="UTF-8"?>
<svg xmlns="http://www.w3.org/2000/svg" width="105.0" height="105.0" viewBox="0 0 40.0 40.0">
  <g>
    <path d="M4.826,26.692H13.646C14.102,26.692 14.472,27.062 14.472,27.518V28.193C14.472,28.649 14.102,29.019 13.646,29.019H4.826C4.37,29.019 4,28.649 4,28.193V27.518C4,27.062 4.37,26.692 4.826,26.692Z" fill="#DBAD25" />
    <path d="M23.442,17.384H32.262C32.718,17.384 33.088,17.754 33.088,18.21V18.885C33.088,19.341 32.718,19.711 32.262,19.711H23.442C22.986,19.711 22.616,19.341 22.616,18.885V18.21C22.616,17.754 22.986,17.384 23.442,17.384Z" fill="#DBAD25" />
    <path d="M22.278,26.692H31.098C31.555,26.692 31.924,27.062 31.924,27.518V28.193C31.924,28.649 31.555,29.019 31.098,29.019H22.278C21.822,29.019 21.453,28.649 21.453,28.193V27.518C21.453,27.062 21.822,26.692 22.278,26.692Z" fill="#DBAD25" />
    <path d="M5.989,24.365H14.809C15.265,24.365 15.635,24.735 15.635,25.191V25.866C15.635,26.322 15.265,26.692 14.809,26.692H5.989C5.533,26.692 5.164,26.322 5.164,25.866V25.191C5.164,24.735 5.533,24.365 5.989,24.365Z" fill="#F4C12A" />
    <path d="M21.115,24.365H29.935C30.391,24.365 30.761,24.735 30.761,25.191V25.866C30.761,26.322 30.391,26.692 29.935,26.692H21.115C20.659,26.692 20.289,26.322 20.289,25.866V25.191C20.289,24.735 20.659,24.365 21.115,24.365Z" fill="#F4C12A" />
    <path d="M7.153,29.019H15.973C16.429,29.019 16.799,29.389 16.799,29.845V30.52C16.799,30.976 16.429,31.346 15.973,31.346H7.153C6.697,31.346 6.327,30.976 6.327,30.52V29.845C6.327,29.389 6.697,29.019 7.153,29.019Z" fill="#F4C12A" />
    <path d="M25.769,19.711H34.589C35.045,19.711 35.415,20.081 35.415,20.537V21.212C35.415,21.668 35.045,22.038 34.589,22.038H25.769C25.313,22.038 24.943,21.668 24.943,21.212V20.537C24.943,20.081 25.313,19.711 25.769,19.711Z" fill="#F4C12A" />
    <path d="M22.278,29.019H31.098C31.555,29.019 31.924,29.389 31.924,29.845V30.52C31.924,30.976 31.555,31.346 31.098,31.346H22.278C21.822,31.346 21.453,30.976 21.453,30.52V29.845C21.453,29.389 21.822,29.019 22.278,29.019Z" fill="#F4C12A" />
    <path d="M4.826,31.346H13.646C14.102,31.346 14.472,31.716 14.472,32.172V32.847C14.472,33.303 14.102,33.673 13.646,33.673H4.826C4.37,33.673 4,33.303 4,32.847V32.172C4,31.716 4.37,31.346 4.826,31.346Z" fill="#DBAD25" />
    <path d="M23.442,22.038H32.262C32.718,22.038 33.088,22.408 33.088,22.864V23.539C33.088,23.995 32.718,24.365 32.262,24.365H23.442C22.986,24.365 22.616,23.995 22.616,23.539V22.864C22.616,22.408 22.986,22.038 23.442,22.038Z" fill="#DBAD25" />
    <path d="M24.605,31.346H33.425C33.882,31.346 34.251,31.716 34.251,32.172V32.847C34.251,33.303 33.882,33.673 33.425,33.673H24.605C24.149,33.673 23.78,33.303 23.78,32.847V32.172C23.78,31.716 24.149,31.346 24.605,31.346Z" fill="#DBAD25" />
    <path d="M5.989,33.673H14.809C15.265,33.673 15.635,34.043 15.635,34.499V35.174C15.635,35.63 15.265,36 14.809,36H5.989C5.533,36 5.164,35.63 5.164,35.174V34.499C5.164,34.043 5.533,33.673 5.989,33.673Z" fill="#F4C12A" />
    <path d="M22.278,33.673H31.098C31.555,33.673 31.924,34.043 31.924,34.499V35.174C31.924,35.63 31.555,36 31.098,36H22.278C21.822,36 21.453,35.63 21.453,35.174V34.499C21.453,34.043 21.822,33.673 22.278,33.673Z" fill="#F4C12A" />
    <path d="M10.997,14.618C11.621,14.618 12.128,14.112 12.128,13.487C12.128,12.862 11.621,12.356 10.997,12.356C10.372,12.356 9.865,12.862 9.865,13.487C9.865,14.112 10.372,14.618 10.997,14.618Z" fill="#8B3D99" />
    <path d="M8.282,16.832C8.772,16.832 9.17,16.434 9.17,15.943C9.17,15.453 8.772,15.055 8.282,15.055C7.791,15.055 7.394,15.453 7.394,15.943C7.394,16.434 7.791,16.832 8.282,16.832Z" fill="#8B3D99" />
    <path d="M6.682,19.433C7.173,19.433 7.57,19.036 7.57,18.545C7.57,18.055 7.173,17.657 6.682,17.657C6.191,17.657 5.794,18.055 5.794,18.545C5.794,19.036 6.191,19.433 6.682,19.433Z" fill="#8B3D99" />
    <path d="M26.342,7.542C26.342,7.542 18.898,5.597 15.94,6.263C15.94,6.263 12.266,9.043 13.309,9.624C14.352,10.204 17.065,9.9 17.065,9.9L26.342,7.542Z" fill="#10CBB4" />
    <path d="M26.389,7.747C26.389,7.747 15.2,6.061 13.246,6.914L13.629,9.68L26.389,7.747Z" fill="#008C7B" />
    <path d="M15.54,13.671C16.545,12.881 19.655,10.729 26.324,8.287C26.78,8.12 26.695,7.481 26.212,7.451C24.015,7.316 19.703,7.445 12.676,9.194C12.376,9.268 12.233,9.605 12.398,9.852L14.879,13.574C15.023,13.789 15.33,13.836 15.54,13.671Z" fill="#10CBB4" />
  </g>
</svg>
