<?xml version="1.0" encoding="UTF-8"?>
<svg xmlns="http://www.w3.org/2000/svg" width="63.0" height="63.0" viewBox="0 0 24.0 24.0">
  <path d="M4.929,19.071C6.805,20.947 9.348,22 12,22C17.522,22 22,17.523 22,12C22,6.478 17.522,2 12,2C6.478,2 2,6.478 2,12C2,14.652 3.054,17.196 4.929,19.071ZM13,8C13,8.552 12.552,9 12,9C11.448,9 11,8.552 11,8C11,7.448 11.448,7 12,7C12.552,7 13,7.448 13,8ZM11,11C11,10.448 11.448,10 12,10C12.552,10 13,10.448 13,11V16C13,16.552 12.552,17 12,17C11.448,17 11,16.552 11,16V11Z" fill="#06C7B1" />
</svg>
