<?xml version="1.0" encoding="UTF-8"?>
<svg xmlns="http://www.w3.org/2000/svg" width="235.0" height="305.0" viewBox="0 0 94.0 122.0">
  <g>
    <path d="M67.555,15.693L59.402,30.85C59.066,31.471 58.3,31.699 57.691,31.359C57.082,31.025 56.854,30.249 57.19,29.628L65.343,14.467C65.678,13.849 66.444,13.621 67.053,13.958C67.663,14.295 67.887,15.072 67.555,15.693ZM50.125,31.752C45.418,31.752 44.123,28.617 43.791,27.051C43.649,26.433 43.646,25.999 43.646,25.791C43.646,25.051 44.237,24.452 44.963,24.452C45.643,24.452 46.196,24.973 46.271,25.638C46.271,25.644 46.276,25.647 46.276,25.653C46.283,25.693 46.289,25.766 46.295,25.862C46.304,25.937 46.316,26.012 46.316,26.093C46.316,26.146 46.32,26.199 46.322,26.256C46.335,26.364 46.348,26.483 46.369,26.604C46.418,26.864 46.504,27.153 46.649,27.447C46.667,27.475 46.679,27.503 46.695,27.531C47.141,28.373 48.058,29.2 49.83,29.294C52.498,29.371 53.285,28.466 53.295,27.343C53.193,26.043 53.116,25.107 50.036,23.831C46.433,22.34 44.135,21.438 44.135,18.316C44.135,15.196 46.993,13.908 49.611,13.908C50.271,13.908 50.842,13.986 51.353,14.111C52.375,14.316 53.506,14.741 54.353,15.584V15.577C54.568,15.771 54.796,16.055 54.996,16.397C55.017,16.433 55.039,16.466 55.057,16.501C55.11,16.594 55.159,16.694 55.208,16.797C55.223,16.831 55.239,16.862 55.254,16.897C55.513,17.476 55.697,18.163 55.697,18.865C55.697,18.99 55.713,19.199 55.67,19.433C55.667,19.454 55.66,19.473 55.657,19.495C55.645,19.548 55.627,19.601 55.605,19.657C55.596,19.682 55.59,19.704 55.577,19.726C55.571,19.745 55.562,19.763 55.55,19.786C55.331,20.222 54.891,20.525 54.374,20.525C53.919,20.525 53.526,20.291 53.288,19.938C53.27,19.906 53.252,19.876 53.236,19.844C53.199,19.783 53.169,19.713 53.143,19.644C53.141,19.636 53.135,19.627 53.135,19.617C53.122,19.583 53.11,19.545 53.104,19.511C53.042,19.299 53.015,19.071 53.015,18.881C53.015,18.84 53.012,18.802 53.009,18.762C53.009,18.699 53.005,18.643 52.999,18.585C52.959,18.253 52.863,17.992 52.747,17.78C52.735,17.758 52.722,17.736 52.71,17.714C52.685,17.677 52.664,17.642 52.639,17.604C51.981,16.644 50.575,16.157 49.547,16.157C48.163,16.157 46.676,16.928 46.676,18.344C46.676,19.757 48.009,20.606 50.267,21.361C54.679,22.999 55.59,24.324 55.987,25.94C56.424,27.709 55.667,31.752 50.125,31.752ZM74.727,16.95C72.284,5.838 61.25,-1.128 50.089,1.395C38.924,3.923 31.856,14.978 34.302,26.09C35.108,29.762 36.853,32.981 39.234,35.554C40.455,36.88 37.732,44.192 39.246,45.146C40.492,45.933 45.938,40.424 47.329,40.93C50.919,42.231 54.922,42.551 58.94,41.644C70.102,39.119 77.173,28.065 74.727,16.95Z" fill="#10CBB4" />
    <path d="M67.654,50.84C69.267,49.955 72.282,49.678 73.733,51.673C75.187,53.665 75.523,57.434 75.313,60.539C75.099,63.754 73.836,69.278 71.88,73.155C69.983,76.924 67.418,79.575 63.822,79.001C60.986,78.548 59.634,76.828 59.436,76.556L59.41,76.52C59.41,76.52 59.222,77.383 58.682,81.028C58.529,82.048 58.374,83.366 58.194,84.777C60.564,84.441 62.399,84.188 63.195,84.09C66.462,83.687 78.839,82.077 82.29,81.969C85.742,81.856 86.453,82.411 87.002,83.297C87.547,84.187 87.769,85.629 86.727,86.684C85.689,87.735 77.089,88.29 73.034,88.843C70.56,89.184 63.265,90.164 57.161,91.013C56.841,92.336 56.457,93.404 55.984,93.959C54.42,95.792 52.803,95.116 52.329,93.959C52.077,93.338 52.095,92.429 52.166,91.72C50.522,91.959 49.222,92.156 48.497,92.281C46.721,92.591 42.33,93.411 37.719,94.346L36.458,94.604C32.458,95.426 28.456,96.309 25.994,96.997C25.538,98.404 25.08,99.812 24.598,101.209C22.753,106.567 20.368,111.738 16.668,116.072C15.41,117.542 14.012,118.922 12.357,119.907C10.699,120.891 8.758,121.471 6.847,121.258C4.123,120.963 1.926,118.961 1.233,116.3C0.515,113.548 1.381,110.512 2.429,107.931C3.553,105.15 5.224,102.598 7.254,100.404C8.823,98.704 10.597,97.212 12.502,95.907C13.851,94.909 15.568,93.811 17.61,92.837C18.421,92.453 19.317,92.094 20.26,91.766C20.393,91.711 20.525,91.655 20.657,91.602C20.836,91.53 21.018,91.455 21.141,91.308C21.249,91.186 21.298,91.027 21.348,90.868C22.494,87.123 23.745,83.407 24.956,79.678C24.672,80.545 23.674,81.473 23.064,82.09C21.733,83.429 19.955,84.733 18.026,84.861C16.895,84.936 15.725,84.602 14.856,83.863C13.805,82.967 13.278,81.563 13.154,80.177C12.992,78.392 13.355,76.545 13.731,74.807C14.117,73.022 14.625,71.262 15.191,69.527C15.574,68.356 15.987,67.193 16.406,66.039C16.785,65.002 17.312,63.951 17.444,62.849C17.588,61.629 17.296,60.337 17.737,59.485C18.177,58.633 19.314,58.83 20.386,59.049C21.462,59.264 22.63,60.596 22.522,62.072C22.411,63.551 21.754,65.439 21.314,66.881C20.88,68.323 19.928,71.281 19.598,72.723C19.271,74.164 18.735,76.639 19.819,77.419C21.206,78.418 23.067,76.792 24.528,74.535C25.862,72.475 27.705,67.177 28.253,65.586C28.801,63.998 30.022,60.084 30.416,58.861C30.808,57.635 31.72,56.455 33.072,55.641C34.422,54.827 35.849,54.68 36.798,55.01C37.747,55.344 37.016,57.784 36.798,58.633L36.785,58.681C36.572,59.472 34.433,67.213 32.346,74.756L32.017,75.945C30.051,83.052 28.226,89.645 28.226,89.645C28.223,89.658 28.219,89.666 28.216,89.676C31.322,89.036 34.132,88.587 35.71,88.25L35.918,88.207C37.795,87.828 43.257,86.978 48.84,86.144L50.181,85.945C51.237,85.788 52.287,85.633 53.309,85.484C53.61,83.9 53.965,82.034 54.352,80.008C52.939,80.904 51.074,81.702 49.599,81.216C47.375,80.479 47.316,77.894 47.316,77.894C46.071,80.977 43.672,83.348 40.428,82.863C37.185,82.382 36.259,80.111 35.862,78.419C35.462,76.727 34.626,72.609 36.925,65.694C39.224,58.778 43.078,54.365 46.259,53.902C49.439,53.44 51,55.492 51,55.492L51.435,54.116C51.87,52.741 53.308,52.822 54.766,53.253C56.224,53.688 56.349,54.954 56.045,56.268C55.919,56.813 55.513,58.656 55.082,60.62L54.823,61.804C54.306,64.163 53.828,66.358 53.828,66.358C53.828,66.358 51.529,75.331 53.753,74.666C54.532,74.435 55.121,74.072 55.558,73.698C55.676,73.072 55.796,72.445 55.916,71.817L56.278,69.927C57.924,61.338 59.502,53.188 59.693,52.496C60.107,50.993 61.065,51.118 62.905,51.561C64.748,52.003 64.3,52.745 64.3,52.745L63.988,54.928C64.29,54.192 66.033,51.726 67.654,50.84ZM19.12,98.897C19.12,98.897 14.064,100.782 10.215,105.65C7.146,109.532 5.732,113.485 6.847,114.859C8.243,116.581 10.915,113.738 11.808,112.705C13.62,110.612 15.013,108.19 16.252,105.716C16.852,104.511 17.422,103.291 17.94,102.049C18.183,101.463 18.417,100.873 18.636,100.279C18.701,100.098 18.969,98.953 19.12,98.897ZM83.999,49.931C85.81,48.411 87.803,48.048 90.134,48.441C90.797,48.552 91.442,48.798 91.989,49.183C95.691,51.77 93.434,57.204 91.432,60.179C89.981,62.332 87.877,63.897 85.486,64.907C84.683,65.248 83.161,65.845 81.695,65.879C81.636,65.881 81.05,67.401 80.923,68.295C80.777,69.329 80.867,70.938 81.595,71.615C83.314,73.224 86.333,71.242 87.672,70.119C88.275,69.612 88.917,69.135 89.418,68.53C89.888,67.97 90.71,66.715 91.51,66.974C92.166,67.185 92.569,68.404 92.777,68.917C92.777,68.917 93.372,70.354 92.945,71.221C92.518,72.089 89.458,74.823 88.755,75.369C88.057,75.915 85.545,77.483 83.332,78.031C81.573,78.464 79.553,78.274 78.068,77.179C77.116,76.481 76.447,75.456 76.042,74.355C75.634,73.257 75.479,72.085 75.407,70.916C75.13,66.127 76.418,60.963 78.725,56.743C80.751,53.027 81.568,51.963 83.999,49.931ZM50.046,61.059C50.453,58.999 49.008,58.558 47.763,59.042C46.215,59.642 44.113,60.83 42.408,64.685C41.508,66.728 40.991,68.844 40.86,70.634C40.729,72.426 41.001,75.623 43.115,76.029C45.007,76.389 46.371,73.388 47.601,69.703C48.749,66.255 49.658,63.021 50.046,61.059ZM70.112,60.676C70.266,58.575 69.795,54.478 66.871,56.605C64.51,58.317 63.386,62.366 62.472,65.802C61.505,69.434 60.852,73.028 60.852,73.028C62.23,74.562 64.746,73.748 65.936,72.516C67.295,71.114 67.992,69.197 68.633,67.36C69.39,65.197 69.946,62.974 70.112,60.676ZM89.122,54.286C88.982,53.525 88.328,53.153 87.56,53.345C87.027,53.477 86.585,53.843 86.199,54.23C84.369,56.085 82.893,59.625 82.632,61.049C82.651,60.932 83.021,61.059 84.291,60.542C84.752,60.351 85.184,60.139 85.605,59.871C86.52,59.29 87.376,58.595 88.03,57.73C88.72,56.817 89.343,55.455 89.122,54.286Z" fill="#FFFFFF" />
  </g>
</svg>
