<svg xmlns="http://www.w3.org/2000/svg"
     width="63"
     height="63"
     viewBox="0 0 24 24">

  <path
    d="M7 2C4.79086 2 3 3.79086 3 6V18C3 20.2091 4.79086 22 7 22H19C20.1046 22 21 21.1046 21 20V6C21 3.79086 19.2091 2 17 2H7ZM6 7C6 6.44772 6.44772 6 7 6H17C17.5523 6 18 6.44772 18 7C18 7.55228 17.5523 8 17 8H7C6.44772 8 6 7.55228 6 7ZM6 12C6 11.4477 6.44772 11 7 11H17C17.5523 11 18 11.4477 18 12C18 12.5523 17.5523 13 17 13H7C6.44772 13 6 12.5523 6 12ZM12 16C11.4477 16 11 16.4477 11 17C11 17.5523 11.4477 18 12 18H17C17.5523 18 18 17.5523 18 17C18 16.4477 17.5523 16 17 16H12Z"
    fill="#742284"
    fill-rule="evenodd"
    clip-rule="evenodd"/>
</svg>