<?xml version="1.0" encoding="UTF-8"?>
<svg xmlns="http://www.w3.org/2000/svg" width="249.375" height="249.375" viewBox="0 0 95.0 95.0">
  <g>
    <path d="M68.37,43.583H59.873V30.802C59.873,23.743 54.167,18.021 47.127,18.021C40.088,18.021 34.382,23.743 34.382,30.802V43.583H25.885V30.802C25.885,19.037 35.395,9.5 47.127,9.5C58.859,9.5 68.37,19.037 68.37,30.802V43.583Z" fill="#8B3D99" />
    <path d="M20.924,34.964H72.513C74.888,34.964 76.812,36.849 76.812,39.175V81.289C76.812,83.615 74.888,85.5 72.513,85.5H20.924C18.55,85.5 16.625,83.615 16.625,81.289V39.175C16.625,36.849 18.55,34.964 20.924,34.964Z" fill="#CE92D6" />
    <path d="M47.377,51.168C50.297,51.168 52.665,53.419 52.665,56.195C52.665,58.054 51.603,59.678 50.024,60.548L50.021,66.248C50.021,67.636 48.837,68.761 47.377,68.761C45.917,68.761 44.733,67.636 44.733,66.248L44.733,60.549C43.152,59.68 42.089,58.055 42.089,56.195C42.089,53.419 44.456,51.168 47.377,51.168Z" fill="#8B3D99" />
    <path d="M81.344,73.625H63.531C58.612,73.625 54.625,77.347 54.625,81.938C54.625,86.528 58.612,90.25 63.531,90.25H81.344C86.262,90.25 90.25,86.528 90.25,81.938C90.25,77.347 86.262,73.625 81.344,73.625Z" fill="#10CBB4" />
    <path d="M71.996,84.482C73.196,84.482 74.168,83.51 74.168,82.311C74.168,81.111 73.196,80.139 71.996,80.139C70.797,80.139 69.825,81.111 69.825,82.311C69.825,83.51 70.797,84.482 71.996,84.482Z" fill="#FFFFFF" />
    <path d="M80.682,84.482C81.881,84.482 82.854,83.51 82.854,82.311C82.854,81.111 81.881,80.139 80.682,80.139C79.483,80.139 78.511,81.111 78.511,82.311C78.511,83.51 79.483,84.482 80.682,84.482Z" fill="#FFFFFF" />
    <path d="M63.311,84.482C64.51,84.482 65.482,83.51 65.482,82.311C65.482,81.111 64.51,80.139 63.311,80.139C62.112,80.139 61.139,81.111 61.139,82.311C61.139,83.51 62.112,84.482 63.311,84.482Z" fill="#FFFFFF" />
  </g>
</svg>
