<svg xmlns="http://www.w3.org/2000/svg"
     width="63"
     height="63"
     viewBox="0 0 24 24"
     shape-rendering="geometricPrecision">

  <path
    d="M19 4C20.66 4 22 5.34 22 7V17C22 18.66 20.66 20 19 20H8C6.34 20 5 18.66 5 17V8.27L2.31 5.73C1.91 5.35 1.89 4.71 2.27 4.31C2.46 4.11 2.73 4 3 4H19ZM17 8C17.55 8 18 8.45 18 9C18 9.55 17.55 10 17 10H10C9.45 10 9 9.55 9 9C9 8.45 9.45 8 10 8H17ZM17 11C17.55 11 18 11.45 18 12C18 12.55 17.55 13 17 13H10C9.45 13 9 12.55 9 12C9 11.45 9.45 11 10 11H17ZM13 14C13.55 14 14 14.45 14 15C14 15.55 13.55 16 13 16H10C9.45 16 9 15.55 9 15C9 14.45 9.45 14 10 14H13Z"
    fill="#2C2044"
    fill-rule="evenodd"
    clip-rule="evenodd"
    vector-effect="non-scaling-stroke"/>
</svg>