<?xml version="1.0" encoding="UTF-8"?>
<svg xmlns="http://www.w3.org/2000/svg" width="60.0" height="60.0" viewBox="0 0 24.0 24.0">
  <path d="M10.5 2.5C14.9183 2.5 18.5 6.08172 18.5 10.5C18.5 12.3034 17.9023 13.9667 16.8955 15.3047L21.7451 20.1543L21.8223 20.2402C22.1825 20.6821 22.1569 21.3333 21.7451 21.7451C21.3333 22.1569 20.6821 22.1825 20.2402 21.8223L20.1543 21.7451L15.3047 16.8955C13.9667 17.9023 12.3034 18.5 10.5 18.5C6.08172 18.5 2.5 14.9183 2.5 10.5C2.5 6.08172 6.08172 2.5 10.5 2.5ZM10.5 4.75C7.32436 4.75 4.75 7.32436 4.75 10.5C4.75 13.6756 7.32436 16.25 10.5 16.25C13.6756 16.25 16.25 13.6756 16.25 10.5C16.25 7.32436 13.6756 4.75 10.5 4.75Z" fill="#2C2044" />
</svg>
