<?xml version="1.0" encoding="UTF-8"?>
<svg xmlns="http://www.w3.org/2000/svg" width="63.0" height="63.0" viewBox="0 0 24.0 24.0">
  <path d="M18,2C20.209,2 22,3.791 22,6C22,8.209 20.209,10 18,10C16.796,10 15.716,9.468 14.983,8.626L9.912,11.162C9.97,11.432 10,11.713 10,12C10,12.287 9.97,12.568 9.912,12.838L14.983,15.374C15.716,14.532 16.796,14 18,14C20.209,14 22,15.791 22,18C22,20.209 20.209,22 18,22C15.791,22 14,20.209 14,18C14,17.713 14.03,17.432 14.088,17.162L9.017,14.626C8.284,15.468 7.204,16 6,16C3.791,16 2,14.209 2,12C2,9.791 3.791,8 6,8C7.204,8 8.284,8.532 9.017,9.374L14.088,6.838C14.03,6.568 14,6.287 14,6C14,3.791 15.791,2 18,2ZM18,16C16.895,16 16,16.895 16,18C16,19.105 16.895,20 18,20C19.105,20 20,19.105 20,18C20,16.895 19.105,16 18,16ZM6,10C4.895,10 4,10.895 4,12C4,13.105 4.895,14 6,14C7.105,14 8,13.105 8,12C8,10.895 7.105,10 6,10ZM18,4C16.895,4 16,4.895 16,6C16,7.105 16.895,8 18,8C19.105,8 20,7.105 20,6C20,4.895 19.105,4 18,4Z" fill="#06C7B1" />
</svg>
