<?xml version="1.0" encoding="UTF-8"?>
<svg xmlns="http://www.w3.org/2000/svg" width="66.45" height="66.45" viewBox="0 0 24.0 24.0">
  <path d="M21.697,2.303C21.427,2.033 21.03,1.933 20.664,2.045L2.739,7.54C2.317,7.668 2.022,8.049 2.006,8.49C1.961,8.919 2.187,9.331 2.574,9.523L10.524,13.51L14.51,21.463C14.693,21.798 15.047,22.005 15.429,22H15.512C15.934,21.968 16.294,21.682 16.42,21.277L21.955,3.336C22.067,2.971 21.967,2.573 21.697,2.303ZM17.288,5.247L11.092,11.444L5.806,8.8L17.288,5.247ZM15.223,18.199L12.559,12.911L18.754,6.714L15.223,18.199Z" fill="#FFFFFF" />
</svg>
