<?xml version="1.0" encoding="UTF-8"?>
<svg
  xmlns="http://www.w3.org/2000/svg"
  viewBox="0 0 24 24"
  width="34"
  height="34"
  shape-rendering="geometricPrecision"
  text-rendering="geometricPrecision"
  image-rendering="optimizeQuality"
  vector-effect="non-scaling-stroke"
>

  <!-- Rayita superior independiente -->
  <path
    d="M2 2
       C2.55228 2 3 2.44772 3 3
       C3 3.55228 2.55228 4 2 4
       H1
       C0.44772 4 0 3.55228 0 3
       C0 2.44772 0.44772 2 1 2
       H2Z"
    fill="#2C2044"
  />

  <!-- Cuerpo principal -->
  <path
    d="
    M11 2
    C11.1 2 11.18 2.01 11.26 2.03
    C16.15 1.63 20.69 4.87 21.77 9.79
    C22.95 15.17 19.53 20.53 14.14 21.75
    C12.57 22.11 11.01 22.08 9.56 21.72
    L8.53 21.41
    C8.42 21.38 8.2 21.41 7.87 21.5
    L6.55 21.99
    L5.38 22.49
    C5.19 22.57 4.97 22.54 4.85 22.41
    C4.72 22.27 4.68 22.08 4.73 21.9
    L4.75 21.8
    C5.01 20.13 4.94 19.17 4.62 18.8
    C4.41 18.57 4.21 18.34 4.02 18.09
    C3.18 16.98 2.55 15.67 2.23 14.22
    L2.19 14
    H1
    C0.45 14 0 13.55 0 13
    C0 12.45 0.45 12 1 12
    H2
    C2.01 10.6 2.32 9.24 2.87 8
    H2
    C1.45 8 1 7.55 1 7
    C1 6.45 1.45 6 2 6
    H4
    C4.62 5.25 5.3 4.57 6.06 4
    H5
    C4.45 4 4 3.55 4 3
    C4 2.45 4.45 2 5 2
    H11
    Z

    M10.3 4.2
    C5.98 5.18 3.24 9.48 4.19 13.79
    C4.41 14.82 4.83 15.77 5.41 16.61
    L5.77 17.08
    C6.6 18.04 6.88 18.69 6.89 19.7
    L7.01 19.66
    C7.87 19.38 8.43 19.32 8.99 19.46
    L10.03 19.78
    C11.22 20.07 12.47 20.08 13.7 19.8
    C18.02 18.82 20.76 14.53 19.81 10.22
    C18.87 5.92 14.62 3.22 10.3 4.2
    Z

    M16.95 8.21
    C17.36 8.21 17.56 8.42 17.49 8.77
    L15.02 16.03
    C14.92 16.31 14.74 16.46 14.44 16.5
    H14
    C13.59 16.5 13.39 16.29 13.46 15.95
    L15.92 8.68
    C16.02 8.4 16.21 8.25 16.5 8.21
    H16.95
    Z

    M9.8 7.5
    C10.83 7.5 11.78 7.84 12.2 8.12
    C12.53 8.35 12.59 8.61 12.46 8.92
    L12.11 9.56
    C11.88 9.98 11.58 9.96 11.26 9.82
    L10.87 9.64
    C10.55 9.51 10.21 9.4 9.78 9.4
    C9.09 9.4 8.81 9.65 8.81 9.98
    C8.81 10.36 9.17 10.59 9.67 10.8
    L11.11 11.39
    C11.97 11.8 12.73 12.4 12.73 13.58
    C12.73 14.99 11.61 16.2 9.62 16.2
    C8.37 16.2 7.27 15.72 6.8 15.37
    C6.56 15.18 6.38 14.95 6.61 14.57
    L7.06 13.94
    C7.3 13.6 7.59 13.58 8 13.79
    C8.61 14.11 9.06 14.31 9.62 14.31
    C10.26 14.31 10.56 14.05 10.56 13.72
    C10.56 13.36 10.2 13.12 9.7 12.9
    L8.21 12.26
    C7.37 11.84 6.63 11.22 6.63 10.08
    C6.63 8.52 8 7.5 9.8 7.5
    Z"
    fill="#2C2044"
  />

</svg>