<?xml version="1.0" encoding="UTF-8"?>
<svg xmlns="http://www.w3.org/2000/svg" width="100.0" height="100.0" viewBox="0 0 40.0 40.0">
  <defs>
    <clipPath id="clip0">
      <path d="M0,0h40v40h-40z" />
    </clipPath>
  </defs>
  <g clip-path="url(#clip0)">
    <path d="M20,40.018C31.056,40.018 40.018,31.056 40.018,20C40.018,8.944 31.056,-0.018 20,-0.018C8.944,-0.018 -0.018,8.944 -0.018,20C-0.018,31.056 8.944,40.018 20,40.018Z" fill="#742384" />
    <path d="M25.834,10.105C25.277,7.604 22.761,6.038 20.214,6.606C17.668,7.174 16.055,9.66 16.613,12.161C16.797,12.987 17.195,13.711 17.737,14.29C18.017,14.588 17.395,16.233 17.741,16.448C18.025,16.625 19.267,15.385 19.585,15.499C20.403,15.792 21.316,15.864 22.233,15.66C24.78,15.092 26.392,12.605 25.834,10.105ZM20.223,13.435C19.149,13.435 18.854,12.729 18.778,12.377C18.746,12.238 18.744,12.141 18.744,12.093C18.744,11.926 18.878,11.792 19.045,11.792C19.2,11.792 19.326,11.909 19.343,12.059C19.344,12.06 19.344,12.061 19.345,12.062C19.346,12.071 19.347,12.088 19.348,12.109C19.351,12.126 19.353,12.143 19.353,12.161C19.353,12.173 19.354,12.185 19.355,12.197C19.357,12.222 19.361,12.248 19.365,12.276C19.376,12.335 19.396,12.399 19.429,12.465C19.433,12.472 19.436,12.478 19.44,12.485C19.542,12.674 19.751,12.86 20.155,12.882C20.764,12.899 20.943,12.695 20.945,12.443C20.921,12.15 20.904,11.939 20.202,11.653C19.38,11.317 18.856,11.114 18.856,10.412C18.856,9.709 19.509,9.42 20.105,9.42C20.255,9.42 20.386,9.438 20.503,9.466C20.736,9.512 20.993,9.607 21.187,9.797V9.796C21.236,9.839 21.287,9.903 21.334,9.98C21.338,9.988 21.343,9.995 21.347,10.003C21.359,10.024 21.371,10.047 21.382,10.069C21.386,10.077 21.389,10.084 21.392,10.092C21.452,10.222 21.493,10.377 21.493,10.535C21.493,10.563 21.497,10.61 21.487,10.663C21.487,10.667 21.485,10.672 21.484,10.677C21.481,10.689 21.478,10.701 21.472,10.714C21.47,10.719 21.469,10.725 21.466,10.73C21.464,10.734 21.462,10.738 21.46,10.742C21.41,10.841 21.31,10.91 21.191,10.91C21.088,10.91 20.998,10.857 20.944,10.777C20.94,10.771 20.935,10.763 20.931,10.756C20.923,10.742 20.917,10.727 20.911,10.711C20.91,10.709 20.909,10.707 20.908,10.705C20.906,10.697 20.903,10.689 20.901,10.68C20.888,10.633 20.882,10.582 20.882,10.539C20.882,10.53 20.881,10.521 20.88,10.512C20.88,10.499 20.878,10.486 20.877,10.472C20.868,10.399 20.846,10.339 20.819,10.292C20.817,10.287 20.814,10.282 20.811,10.277C20.806,10.269 20.801,10.26 20.795,10.252C20.645,10.036 20.324,9.927 20.09,9.927C19.774,9.927 19.435,10.1 19.435,10.418C19.435,10.736 19.74,10.927 20.254,11.097C21.261,11.466 21.468,11.764 21.559,12.127C21.66,12.525 21.487,13.435 20.223,13.435ZM24.199,9.822L22.339,13.232C22.263,13.371 22.088,13.422 21.949,13.347C21.809,13.271 21.758,13.096 21.834,12.957L23.694,9.547C23.77,9.408 23.945,9.356 24.084,9.432C24.224,9.507 24.275,9.683 24.199,9.822Z" fill="#10CBB4" />
    <path d="M27.656,24.664C26.87,24.689 24.052,25.051 23.307,25.141C23.133,25.162 22.741,25.216 22.233,25.287C22.267,25.02 22.296,24.773 22.326,24.576C22.446,23.756 22.488,23.561 22.488,23.561C22.488,23.561 22.785,24.009 23.475,24.12C24.278,24.249 24.851,23.652 25.275,22.804C25.712,21.93 25.994,20.687 26.043,19.963C26.089,19.265 26.014,18.417 25.69,17.967C25.366,17.518 24.692,17.58 24.33,17.78C23.968,17.979 23.579,18.535 23.512,18.7L23.582,18.209C23.582,18.209 23.682,18.042 23.27,17.942C22.859,17.842 22.644,17.814 22.552,18.153C22.506,18.322 22.092,20.483 21.691,22.594C21.601,22.722 21.425,22.905 21.119,22.996C20.62,23.146 21.136,21.117 21.136,21.117C21.136,21.117 21.566,19.133 21.634,18.836C21.701,18.539 21.673,18.253 21.347,18.155C21.019,18.057 20.697,18.039 20.599,18.35C20.502,18.661 20.502,18.661 20.502,18.661C20.502,18.661 20.152,18.197 19.438,18.302C18.725,18.406 17.86,19.404 17.344,20.967C16.829,22.531 17.016,23.462 17.105,23.845C17.194,24.227 17.402,24.741 18.129,24.85C18.857,24.959 19.396,24.423 19.675,23.726C19.675,23.726 19.689,24.311 20.188,24.477C20.575,24.606 21.081,24.337 21.405,24.1C21.312,24.592 21.225,25.049 21.151,25.44C19.523,25.675 17.53,25.974 17.048,26.076C16.688,26.153 16.049,26.253 15.341,26.397C15.342,26.395 15.342,26.392 15.343,26.39C15.343,26.39 17.245,19.607 17.295,19.416C17.344,19.225 17.511,18.676 17.295,18.601C17.078,18.526 16.754,18.56 16.446,18.743C16.139,18.926 15.931,19.191 15.841,19.467C15.752,19.742 15.474,20.622 15.349,20.98C15.224,21.337 14.804,22.529 14.501,22.992C14.168,23.499 13.744,23.865 13.428,23.641C13.181,23.466 13.303,22.909 13.378,22.585C13.453,22.261 13.669,21.595 13.769,21.271C13.869,20.947 14.018,20.523 14.043,20.19C14.068,19.857 13.802,19.558 13.558,19.509C13.313,19.461 13.054,19.416 12.954,19.608C12.854,19.799 12.921,20.09 12.887,20.364C12.857,20.612 12.738,20.848 12.652,21.081C12.555,21.341 12.461,21.602 12.375,21.865C12.245,22.256 12.13,22.651 12.042,23.053C11.956,23.444 11.873,23.859 11.91,24.26C11.939,24.572 12.058,24.888 12.298,25.09C12.495,25.255 12.762,25.331 13.02,25.314C13.46,25.284 13.864,24.992 14.167,24.69C14.307,24.552 14.535,24.343 14.599,24.148C14.324,24.986 14.039,25.823 13.777,26.665C13.766,26.7 13.755,26.736 13.73,26.764C13.702,26.797 13.66,26.814 13.62,26.829C13.59,26.841 13.559,26.854 13.529,26.867C13.314,26.941 13.11,27.021 12.925,27.108C12.46,27.327 12.069,27.574 11.762,27.798C11.328,28.092 10.925,28.426 10.566,28.809C10.104,29.302 9.724,29.876 9.467,30.502C9.228,31.082 9.032,31.765 9.195,32.384C9.353,32.983 9.853,33.432 10.473,33.5C10.908,33.547 11.35,33.417 11.728,33.195C12.105,32.974 12.424,32.664 12.71,32.333C13.553,31.359 14.095,30.196 14.516,28.99C14.625,28.676 14.731,28.36 14.833,28.043C16.103,27.692 19.168,27.119 19.959,26.983C20.137,26.952 20.469,26.903 20.886,26.844C20.861,27.001 20.829,27.301 20.905,27.486C21.011,27.747 21.372,27.899 21.722,27.486C21.843,27.342 21.939,27.046 22.016,26.686C23.388,26.497 24.995,26.285 25.547,26.21C26.471,26.085 28.429,25.96 28.666,25.723C28.903,25.486 28.853,25.162 28.728,24.962C28.604,24.764 28.442,24.639 27.656,24.664ZM23.173,21.149C23.378,20.376 23.628,19.465 24.156,19.078C24.81,18.6 24.914,19.522 24.88,19.995C24.843,20.513 24.718,21.012 24.55,21.5C24.406,21.914 24.25,22.345 23.947,22.661C23.681,22.938 23.119,23.121 22.81,22.776C22.811,22.776 22.957,21.967 23.173,21.149ZM20.287,19.921C20.2,20.364 19.996,21.095 19.738,21.875C19.463,22.708 19.157,23.387 18.732,23.305C18.258,23.214 18.196,22.49 18.226,22.085C18.256,21.68 18.371,21.202 18.574,20.74C18.956,19.868 19.428,19.6 19.775,19.465C20.054,19.355 20.378,19.455 20.287,19.921ZM13.159,28.783C13.109,28.917 13.056,29.049 13,29.181C12.883,29.461 12.752,29.734 12.616,30.006C12.334,30.562 12.017,31.107 11.604,31.577C11.4,31.809 10.793,32.449 10.474,32.062C10.22,31.753 10.543,30.864 11.242,29.991C12.118,28.896 13.27,28.472 13.27,28.472C13.234,28.484 13.174,28.743 13.159,28.783Z" fill="#FFFFFF" />
    <path d="M29.781,21.296C29.601,21.237 29.415,21.524 29.31,21.652C29.197,21.79 29.052,21.899 28.916,22.015C28.614,22.271 27.934,22.722 27.546,22.356C27.383,22.201 27.362,21.834 27.395,21.598C27.424,21.394 27.556,21.047 27.569,21.046C27.9,21.039 28.243,20.903 28.424,20.825C28.964,20.594 29.438,20.237 29.765,19.746C30.217,19.068 30.725,17.827 29.891,17.237C29.767,17.149 29.622,17.093 29.472,17.068C28.946,16.978 28.497,17.061 28.089,17.408C27.541,17.872 27.357,18.115 26.9,18.963C26.381,19.925 26.09,21.103 26.152,22.196C26.167,22.463 26.203,22.731 26.295,22.981C26.387,23.232 26.538,23.466 26.752,23.625C27.087,23.875 27.543,23.919 27.939,23.819C28.438,23.694 29.004,23.337 29.162,23.212C29.32,23.087 30.01,22.464 30.106,22.265C30.202,22.067 30.068,21.74 30.068,21.74C30.02,21.623 29.929,21.345 29.781,21.296ZM28.584,18.389C28.67,18.3 28.77,18.217 28.891,18.187C29.064,18.143 29.212,18.228 29.243,18.401C29.292,18.669 29.152,18.98 28.997,19.187C28.85,19.385 28.656,19.544 28.45,19.676C28.355,19.737 28.257,19.786 28.154,19.829C27.868,19.947 27.785,19.919 27.78,19.945C27.839,19.62 28.171,18.812 28.584,18.389Z" fill="#FFFFFF" />
  </g>
</svg>
