<?xml version="1.0" encoding="UTF-8"?>
<svg xmlns="http://www.w3.org/2000/svg" width="52.5" height="42.0" viewBox="0 0 20.0 16.0">
  <path d="M18.3333,0.5H5.8333C5.2583,0.5 4.8042,0.7917 4.5042,1.2333L1.4769,5.7785C0.5824,7.1214 0.5824,8.8703 1.4769,10.2132L4.5042,14.7583C4.8042,15.2 5.2583,15.5 5.8333,15.5H18.3333C19.2542,15.5 20,14.7542 20,13.8333V2.1667C20,1.2458 19.2542,0.5 18.3333,0.5ZM15.2437,10.3979C15.5694,10.7235 15.5694,11.2515 15.2437,11.5771C14.9181,11.9027 14.3902,11.9027 14.0646,11.5771L11.6667,9.1792L9.2688,11.5771C8.9431,11.9027 8.4152,11.9027 8.0896,11.5771C7.764,11.2515 7.764,10.7235 8.0896,10.3979L10.4875,8L8.0896,5.6021C7.764,5.2765 7.764,4.7485 8.0896,4.4229C8.4152,4.0973 8.9431,4.0973 9.2688,4.4229L11.6667,6.8208L14.0646,4.4229C14.3902,4.0973 14.9181,4.0973 15.2437,4.4229C15.5694,4.7485 15.5694,5.2765 15.2437,5.6021L12.8458,8L15.2437,10.3979Z" fill="#E3B2EB" />
</svg>
