<?xml version="1.0" encoding="UTF-8"?>
<svg xmlns="http://www.w3.org/2000/svg" width="48.0" height="48.0" viewBox="0 0 24.0 24.0">
  <path d="M5.21,5.387L5.293,5.293C5.653,4.932 6.221,4.905 6.613,5.21L6.707,5.293L12,10.585L17.293,5.293C17.683,4.902 18.317,4.902 18.707,5.293C19.098,5.683 19.098,6.317 18.707,6.707L13.415,12L18.707,17.293C19.068,17.653 19.095,18.221 18.79,18.613L18.707,18.707C18.347,19.068 17.779,19.095 17.387,18.79L17.293,18.707L12,13.415L6.707,18.707C6.317,19.098 5.683,19.098 5.293,18.707C4.902,18.317 4.902,17.683 5.293,17.293L10.585,12L5.293,6.707C4.932,6.347 4.905,5.779 5.21,5.387L5.293,5.293L5.21,5.387Z" fill="#68686F" />
</svg>