<?xml version="1.0" encoding="UTF-8"?>  <svg xmlns="http://www.w3.org/2000/svg" width="80.0" height="80.0" viewBox="0 0 32.0 32.0">  
  <g>  
    <path d="M16,16m-16,0a16,16 0,1 1,32 0a16,16 0,1 1,-32 0" fill="#000000" fill-opacity="0.6" />  
    <path d="M9.21,9.387L9.293,9.293C9.653,8.932 10.221,8.905 10.613,9.21L10.707,9.293L16,14.585L21.293,9.293C21.683,8.902 22.317,8.902 22.707,9.293C23.098,9.683 23.098,10.317 22.707,10.707L17.415,16L22.707,21.293C23.068,21.653 23.095,22.221 22.79,22.613L22.707,22.707C22.347,23.068 21.779,23.095 21.387,22.79L21.293,22.707L16,17.415L10.707,22.707C10.317,23.098 9.683,23.098 9.293,22.707C8.902,22.317 8.902,21.683 9.293,21.293L14.585,16L9.293,10.707C8.932,10.347 8.905,9.779 9.21,9.387L9.293,9.293L9.21,9.387Z" fill="#FFFFFF" />  
  </g>  
</svg>  