<?xml version="1.0" encoding="UTF-8"?>
<svg xmlns="http://www.w3.org/2000/svg" width="84.0" height="84.0" viewBox="0 0 32.0 32.0">
  <g>
    <path d="M16,16m-16,0a16,16 0,1 1,32 0a16,16 0,1 1,-32 0" fill="#F9F8FC" />
    <path d="M16,11H11C10.121,11 9.402,11.68 9.338,12.542L9.333,12.667V19.333C9.333,19.483 9.353,19.627 9.39,19.765L11.488,17.667C11.783,17.372 12.178,17.198 12.594,17.18C13.011,17.162 13.42,17.301 13.739,17.569L13.845,17.667L14.335,18.156L16.488,16C16.782,15.705 17.177,15.531 17.594,15.512C18.01,15.494 18.419,15.632 18.738,15.9L18.845,15.999L22.61,19.763C22.637,19.664 22.654,19.562 22.662,19.457L22.667,19.332V15.716C23.282,15.498 23.848,15.162 24.334,14.726V19.333C24.334,19.771 24.248,20.205 24.08,20.609C23.913,21.014 23.667,21.381 23.358,21.691C23.048,22 22.681,22.246 22.276,22.413C21.872,22.581 21.438,22.667 21,22.667H11C10.562,22.667 10.129,22.581 9.724,22.413C9.32,22.246 8.952,22 8.643,21.69C8.333,21.381 8.088,21.013 7.92,20.609C7.753,20.204 7.667,19.771 7.667,19.333V12.667C7.667,12.229 7.753,11.796 7.92,11.391C8.088,10.987 8.333,10.619 8.643,10.31C8.952,10 9.32,9.754 9.724,9.587C10.129,9.419 10.562,9.333 11,9.333H16.284C16.095,9.868 15.999,10.432 16,11ZM17.667,17.178L15.513,19.335L17.178,21H21C21.15,21 21.294,20.98 21.432,20.943L17.667,17.178ZM12.667,18.845L10.569,20.944C10.668,20.97 10.77,20.988 10.876,20.995L11,21H14.822L13.779,19.96C13.767,19.949 13.755,19.938 13.744,19.927L13.712,19.89L12.667,18.845ZM12.667,11.833C13.109,11.833 13.533,12.009 13.846,12.321C14.158,12.634 14.334,13.058 14.334,13.5C14.334,13.942 14.158,14.366 13.846,14.679C13.533,14.991 13.109,15.167 12.667,15.167C12.225,15.167 11.801,14.991 11.488,14.679C11.176,14.366 11,13.942 11,13.5C11,13.058 11.176,12.634 11.488,12.321C11.801,12.009 12.225,11.833 12.667,11.833ZM21,7.667L21.097,7.672L21.191,7.689C21.374,7.732 21.536,7.836 21.653,7.983C21.769,8.13 21.833,8.312 21.833,8.5V10.166H23.5C23.721,10.166 23.933,10.254 24.089,10.41C24.246,10.566 24.333,10.778 24.333,11C24.333,11.221 24.246,11.433 24.089,11.589C23.933,11.745 23.721,11.833 23.5,11.833H21.833V13.5L21.828,13.597C21.804,13.8 21.707,13.987 21.554,14.123C21.401,14.258 21.204,14.333 21,14.333L20.903,14.328C20.7,14.304 20.513,14.207 20.377,14.054C20.242,13.901 20.167,13.704 20.167,13.5V11.832L18.5,11.833C18.279,11.833 18.067,11.745 17.911,11.589C17.755,11.433 17.667,11.221 17.667,11C17.667,10.779 17.755,10.567 17.911,10.411C18.067,10.255 18.279,10.167 18.5,10.167L20.167,10.166V8.5L20.172,8.403C20.196,8.2 20.293,8.013 20.446,7.877C20.599,7.742 20.796,7.667 21,7.667Z" fill="#742384" />
  </g>
</svg>
