<?xml version="1.0" encoding="UTF-8"?>
<svg xmlns="http://www.w3.org/2000/svg" width="60.0" height="60.0" viewBox="0 0 24.0 24.0">
  <path d="M4,7.001C3.447,7.001 3,6.554 3,6.001C3,5.448 3.447,5.001 4,5.001H5.18C5.61,3.813 6.738,3 8,3C9.262,3 10.39,3.813 10.82,5.001H20C20.553,5.001 21,5.448 21,6.001C21,6.554 20.553,7.001 20,7.001H10.82C10.39,8.188 9.262,8.954 8,8.954C6.738,8.954 5.61,8.188 5.18,7.001H4ZM8,5.001C7.447,5.001 7,5.448 7,6.001C7,6.554 7.447,7.001 8,7.001C8.553,7.001 9,6.554 9,6.001C9,5.448 8.553,5.001 8,5.001ZM20,11C20.553,11 21,11.448 21,12C21,12.554 20.553,13 20,13H18.82C18.39,14.188 17.262,15 16,15C14.738,15 13.61,14.188 13.18,13H4C3.447,13 3,12.554 3,12C3,11.448 3.447,11 4,11H13.18C13.61,9.814 14.738,9 16,9C17.262,9 18.39,9.814 18.82,11H20ZM17,12C17,11.448 16.553,11 16,11C15.447,11 15,11.448 15,12C15,12.554 15.447,13 16,13C16.553,13 17,12.554 17,12ZM20,17C20.553,17 21,17.448 21,18C21,18.553 20.553,19 20,19H10.82C10.39,20.188 9.262,21 8,21C6.738,21 5.61,20.188 5.18,19H4C3.447,19 3,18.553 3,18C3,17.448 3.447,17 4,17H5.18C5.61,15.814 6.738,15 8,15C9.262,15 10.39,15.814 10.82,17H20ZM8,19C8.553,19 9,18.553 9,18C9,17.448 8.553,17 8,17C7.447,17 7,17.448 7,18C7,18.553 7.447,19 8,19Z" fill="#FFFFFF" />
</svg>
